/* XPM */
static char *collect1710912943[] = {
/* columns rows colors chars-per-pixel */
"80 80 202 2 ",
"   c #010207",
".  c #02030C",
"X  c #030512",
"o  c #080715",
"O  c #050816",
"+  c #0A0A17",
"@  c #040619",
"#  c #05091B",
"$  c #090B1E",
"%  c #040623",
"&  c #080727",
"*  c #060C23",
"=  c #090C24",
"-  c #03062A",
";  c #09072A",
":  c #060C29",
">  c #0A0C2B",
",  c #061126",
"<  c #091026",
"1  c #061129",
"2  c #0B112B",
"3  c #12122C",
"4  c #101227",
"5  c #030E32",
"6  c #0A0D32",
"7  c #041033",
"8  c #0C1233",
"9  c #081138",
"0  c #141533",
"q  c #161933",
"w  c #191B35",
"e  c #151438",
"r  c #1C1C3B",
"t  c #181737",
"y  c #1E203D",
"u  c #22203C",
"i  c #1E1E42",
"p  c #242444",
"a  c #292747",
"s  c #2C2B4B",
"d  c #27264B",
"f  c #312E4E",
"g  c #32314E",
"h  c #342F53",
"j  c #2D3053",
"k  c #353254",
"l  c #393455",
"z  c #34345A",
"x  c #3A365C",
"c  c #3D3A5C",
"v  c #383957",
"b  c #3C3C62",
"n  c #413E5E",
"m  c #423D63",
"M  c #3C4167",
"N  c #3E4569",
"B  c #454264",
"V  c #494366",
"C  c #45456A",
"Z  c #4A456B",
"A  c #46496E",
"S  c #4D496D",
"D  c #50496E",
"F  c #55466F",
"G  c #4B4672",
"H  c #464A73",
"J  c #4D4B73",
"K  c #4C4E79",
"L  c #454770",
"P  c #564772",
"I  c #524C74",
"U  c #594D76",
"Y  c #554E79",
"T  c #4C5174",
"R  c #4B557B",
"E  c #4A577B",
"W  c #555175",
"Q  c #555279",
"!  c #59527B",
"~  c #56587F",
"^  c #475A82",
"/  c #4B5A83",
"(  c #4F5785",
")  c #545B83",
"_  c #575F8A",
"`  c #5A5E8A",
"'  c #575B84",
"]  c #546284",
"[  c #55648B",
"{  c #5C648D",
"}  c #54688E",
"|  c #59698D",
" . c #596283",
".. c #5C6591",
"X. c #576E94",
"o. c #5C6D93",
"O. c #61658D",
"+. c #60688F",
"@. c #616992",
"#. c #656E99",
"$. c #65759D",
"%. c #6C759D",
"&. c #6679A1",
"*. c #6B7AA2",
"=. c #78869E",
"-. c #6F85AC",
";. c #6F81A5",
":. c #7286A7",
">. c #7788A6",
",. c #7186AA",
"<. c #7B85AC",
"1. c #748AAC",
"2. c #7A8DAB",
"3. c #7E8AA0",
"4. c #6B8CB4",
"5. c #6B8CBA",
"6. c #6788B1",
"7. c #748CB4",
"8. c #7B8DB5",
"9. c #738DBA",
"0. c #7C8EB8",
"q. c #7287B4",
"w. c #6991B5",
"e. c #7390B5",
"r. c #7493BB",
"t. c #7A93BC",
"y. c #7890B6",
"u. c #828EB5",
"i. c #808FB8",
"p. c #8C96B4",
"a. c #8593BA",
"s. c #9196B9",
"d. c #9299BE",
"f. c #97A2BE",
"g. c #919DC3",
"h. c #96A3C5",
"j. c #9CA3C4",
"k. c #9EA6CC",
"l. c #9FABC9",
"z. c #9AB6DA",
"x. c #9AB6DA",
"c. c #A3A9CB",
"v. c #A0A6CA",
"b. c #A7B1CE",
"n. c #A6ADD1",
"m. c #ACB2D3",
"M. c #A3B9DE",
"N. c #AEBAD4",
"B. c #B0B5DB",
"V. c #B1B9D8",
"C. c #A4BDE1",
"Z. c #A8BEE3",
"A. c #B9C1CE",
"S. c #B4C1D5",
"D. c #B5C5DD",
"F. c #B8C7DE",
"G. c #BCCCDF",
"H. c #BAC5D7",
"J. c #ADC1E6",
"K. c #AAC2E8",
"L. c #B5C7E3",
"P. c #B8C7E3",
"I. c #B5C9E5",
"U. c #BCCBE5",
"Y. c #B4CAEC",
"T. c #BDCCEB",
"R. c #B1C5EA",
"E. c #BECFF1",
"W. c #C1CCDC",
"Q. c #C8D0DD",
"!. c #C1CDE7",
"~. c #C1CEEB",
"^. c #C5D1E4",
"/. c #CBD4E5",
"(. c #C5D3E9",
"). c #CCDAEE",
"_. c #C8D4EA",
"`. c #D2DDEF",
"'. c #C0CFF0",
"]. c #C1D1F3",
"[. c #CCDBF3",
"{. c #DDE6ED",
"}. c #E5E5E5",
"|. c #E5E8E6",
" X c #E4E6EA",
".X c #E5E9EC",
"XX c #E9E9EB",
"oX c #E8E6E7",
"OX c #EEF3ED",
"+X c #F1F9ED",
"@X c #F0F5EF",
"#X c #E5EBF4",
"$X c #E9EDF4",
"%X c #E6EEFA",
"&X c #E9EEFA",
"*X c #E7F0F7",
"=X c #ECF2F5",
"-X c #EFF9F0",
";X c #EBF2FB",
":X c #F2F6F4",
">X c #F2FBF4",
",X c #F3FBFD",
/* pixels */
"X X . . .     .     .   . . . .           o   o   . . . . X . . X X X X . X . X X . . . . . . . X X . . . . X X X X X X X X O X # O O + . . . . .   . . . o o o ",
"X X . . .     . .         .   .   o o       o   . . o . X X X X X X X X X X X X X X X X . X X . . X . X . X X X X X X X X O O X X # O X X . . .     . . . X o + ",
"X X . . . . .         .   .           . o o     X . . X X . . X . X X . X X X X X . X X X X . . X . X X . X X X X X X X X X X X X @ X X . . . .   .   . . . o o ",
". . . . .           .   .     .       .     o   . X . . . X X X X . X X . X X X X X X X X X X . . . X . X . X X X X . X X X X X X X X X . . . .     .   . . . X ",
"X . . . .   .       .       . .     . . . . . . X X . o . X X . . X X X X X X X o o X X X X X X X . X . X X X X X X X X X X X . . X . . .   .       . . . . . o ",
". . . .   .         . . . . . . .   . . . X . . X . X . X . . X X X . X X X X X @ @ X X X X X X X X . X X X X X X X X X X . X . X X X .                 . o X . ",
". . . . .   . .     .   . . . . . . . . X o . X X X o X X . X X X X X @ X @ @ @ @ @ @ @ X X X X X X X X X X X X X X X X . X . . . X . . . .         . .   . .   ",
". . . . . . .   o   . . . . . . . . . . X . X X X X X o @ o X X X X X X @ @ @ @ @ % @ @ @ @ @ X X X X X X X X X X X X . X X . . . . .   . .           .     . o ",
". . + . . . . . .     . + . . . . X . X X X X # O O O O O O O O X X X # + # @ % @ % @ & $ # X X X X @ X X X X X X X X . . . . . . . . . .   .   .       . . . . ",
"X .   . . . . . . o + .   . . + X X X X X X O X O O O O O O O O # O # @ o 3 > 3 3 3 3 @ @ # @ @ O O O X X O X O X X X . . X .   . . .       .         .   . . . ",
". . O . . . X . o   o . . X X X X X X X X @ @ O # # O # # # # # X # $ @ = u g g n n f 4 * $ @ X O O X # # X + X X X X . . . . .     .   . .         .   . . . X ",
". + . . . . X X . o   . X . X X X @ X @ $ # # # # # # # # # # # $ $ $ % $ g V B n V l % % $ % $ # # X # O # X O X . . . .   .     .   . .             . . . . . ",
". . + X . X . . X . . X X X X X X # @ # # # # # # # # # # # # # $ # % = % f B m V D c = > $ # # O # @ O O + O O X X . . .     .   . . .   . .   .   . . . . X X ",
". . . . X . . . . . X . X X X X X O # # # # , # # # * # * # # # # * * = ; k Z Z V V v & > # # # # o # # # # X X X X . .   .   . . . . . . .   .   .   . . . . . ",
". X . o . X . . X . X X X O X X # @ # # # * # * , # # # # # , # * * = = & k B C P S c > = & # @ # # o # @ @ X X X . .     .   . .   . .   .     . . . . . . . X ",
"o X . . . X . X X X X X X X O O # # # # * # # # # * # # # # # # @ * % = ; x Z C S I c = & # # # # O # # @ @ X . X .   . . .       .     .   .     . . . . . . . ",
". o . X . . . X X X X X X X O # # # * # # # # # # # # , # # # * # $ % > ; z Z V S I c ; : # O # O # # + X X X X . . . .     . .     . .   .     . . .   .   . . ",
". o X X . X . . . X X X X O # O # # # # * # # # # # # # # # # # # $ = > - x S P D Y b ; * , # O # # # O X X . . . . .   . . .     .   . .     .         .   . . ",
"X X . . X . X X . X X X O X # # # # # * # # # * # # # # # # # # # # = & - h A A S G c ; * # # O # # # X X X . X .   . . . . . .   .   . . . . .   . .     . . . ",
"o . X X X X X . X X X X O # # # * # # # # # # # # # # # # # * # # # & ; ; z L H T T b ; = % @ # + O O X X . X . . . . .   . . . .   . . . .           . . . . . ",
"X X X X . . X . . X X O @ @ # # # $ # $ # # # # # # # # # , # * , # * * & M ( / ( ) M - & = # # X X X X X . . . . . . .   . . . . .   . . . .     .   .   . . . ",
"X X X . X X X X X X X X @ # # # $ # # X # # # O O # # # # # # # # * = = ; o.t.q.q.0.{ - * = $ @ O @ X X X . . X   . . . . . . . . . . . . .         .     . . . ",
"X X X X X . . X X X X O @ # # # @ # # # O # O O # # # # # # * # # : = ; - o.t.4.4.t.| % * = * * X O X X . . . . . . .   . . . . . . . . . . .   . . .   . . . . ",
"X o . X X X . X X X X X X # # # # @ # X O O O O # # # # # , # * , * * 8 : o.r.5.5.r.} - 1 * # = $ X O X X X X X . . . o . . . . . . X X X . . . .   . . .   .   ",
"X o . X . X . . X X X X # # # # o @ @ # O O # O $ # # # X * * * : : > = 5 o.r.5.4.r.| - : * * * # # $ o + X X . + . . . X . . X . X X . . . . . . . . .   . X . ",
"X X X . X X X X X X X @ O # # @ @ + # @ O # O # O # O , % * * * % * ; % - | e.6.6.7.[ * ; & % # $ + $ X + X X X . o X . . X . X X . . X X . .       . . . . . X ",
"X X X X X . X . X X X @ @ # # @ @ # @ + O O # # # # # , * * * e z l l x z a.M.x.x.M.u.j k k f f 3 + $ # # + # o o + . X . X X X X X X X X X . . . . . . . . . X ",
"X X X . X . X X X X @ X # @ # # O O # @ O O # # # # # # * - * r Q Y Y Y J n.].T.Y.].v.G Y P S S 0 @ $ $ = X o X + . o X X X X X X X X X X . X . . . . . . . . . ",
"X X X X . X . X X X # O # @ # @ # @ # @ @ # # # # * % * > 2 ; p I I I I S c.(.Y.P.T.j.A T P G S t # & = = # # @ @ X @ X X X X @ X X X X X X . X X X . X X . X X ",
"X X X X X X X X X X X O X # # @ # # # @ # # # # # * * * > > - i I I I K H c.!.P.U.!.j.A W P I I t & % 4 4 # + # # # @ X @ X X @ X X @ X . X X . . X X . . X X X ",
"X o . X . X X X X X @ O # @ # # # # # # # # # # # * * * * ; - i I G T T A c.!.F.F.U.h.N K K J P t & & 4 3 * @ @ # # X # # # @ @ X @ # X X X X X X X X X X X X X ",
"@ @ X X X X X . X X X # # # # $ # # # * # # # # # * 0 e e r e d ' ( ( / E c.^.W.W.(.l.E ) ( ) ! a t 0 t r 3 = * # @ # # $ % # # # @ @ X @ O X X X X . X . X X X ",
"@ @ + X @ X X X O X X O X O # O # O # # # # # # * % n I Y Y G ` 8.q.9.-.:.(.#X{. X%XT.1.q.q.9.<.' G G G W v * < < * * $ $ = # % % * # @ # # # X X X X X X X # X ",
"@ @ @ @ X X X X X O O $ # # # # # # # @ # # , , : * B Y Y K G [ 9.q.5.7.2._.$XXXXX$XU.7.r.5.9.0.' G P Y U v * 1 * , 1 * % * * * * > $ # # @ X O O X X X X X X # ",
"@ @ @ X X # o X X O # # # # & $ # # $ $ , # * - > ; m Y G J H ] 9.5.5.9.<.^.#X}.XX#XT.1.9.5.5.9.' J I P U x ; ; : 2 1 : * ; 1 * > 2 > = * $ @ @ O O O O @ # # # ",
"@ @ @ o # X @ @ , # # # # * # & $ 1 * > > * 2 8 8 6 m Y K Y T | 7.9.9.7.>./.&XoX X&X!.:.9.9.t.9.' J I I ! b : 6 8 2 - 2 8 * : > ; > = = * = # = O # O O X O # # ",
"o o @ X @ o X @ O X % # # & % % % = % % % - - - - - z H C C N E -.1.:.>.=.W..X}.XX.XW.=.,.;.7.*.E C A Z G z - 5 - - - - > - : ; * = ; ; @ & @ $ # # # @ # # # # ",
"@ @ X o o @ @ @ $ = u u p a a f s a a d b R / ^ ^ ^ <.d.s.s.p.h.L.S.S.H.A..X:X@X=X*X{.V.P.D.F.P.f.p.s.p.d.<.E ^ ^ / ( b z h z k z z z k h f 3 # # $ # # # # # # ",
"O X X X @ @ @ $ @ 3 f l c V S P I S P H +.0.t.r.r.t.J.].].~.!.).;X*X=X=XXX:X:X+X>X>X,X#X;X&X&X#X).T.(.E.].Z.r.r.r.t.i.` J U U Q ! I I Q D V t @ $ # # # # # # # ",
"X X @ X @ @ @ @ o 0 f l m G P G I P I H { 7.4.w.w.w.M.Y.P.F.F.^.{.{.}.}.|.OX+X+X-X-X=X X XXX X{.G.D.I.Y.Y.x.6.w.4.4.7.) J I F F G P D I m n 0 # * # # # # # # # ",
"O O O X X O # # % 3 h n F P I I I G Y H [ q.9.5.4.-.K.Y.P.L.D.^.|.|.|.|.oX@X+X+X>X>X=X.X X XXX X^.L.I.R.Y.x.4.w.w.4.8.) G I P U I I G I B c 3 % % % # # * # # $ ",
"X X O X O O # # @ 3 n n Y I I P Y I Y H ..0.t.4.r.7.J.T.T.U.G./.*X*X.X=X.X:X@X+X+X>X=X#X&X#X#X#X(.U.T.T.E.M.e.9.r.7.0.) J ! U I I I P J n v 3 # $ # # % # # # % ",
"X O X X X X @ @ # 3 g l m Z Z S B Z C m ( *.*.&.&.$.k.B.m.m.b.D.[.[.).`./.:X:XOX-X,X%X/.[.[.[.[.V.b.B.m.B.h.$.&.&.%.%.R A Z V m Z C B b g s 4 % # $ # # # # # # ",
"X X X X @ X @ @ $ $ 4 > 3 > ; > > > 3 6 > 8 5 9 9 9 M ! W T T ] e.e.1.2.=.Q.$XXX X=XW.2.2.q.q.<.~ T Q I ~ b 6 9 9 9 8 : 6 = 8 > ; = ; = = 2 @ $ # # # # # # # & ",
"X X X X X X # @ # # % = > 2 > > = > > > > ; : 6 6 6 b I I J H ] e.w.9.y.>./.$X}. X;X!.:.q.5.9.0.] J I I Q c = 5 6 : 6 = ; * ; : : > % # # $ @ # @ # X # # # # @ ",
"O X O X X @ X X # # # # > = > 1 : 2 > = = > : ; > ; m I Y I G _ t.4.5.9.:.(.$XXX X$XT.1.9.5.5.9.) G I I U c ; > : : 2 = : > : * : * = $ # $ X # # @ # # @ + # $ ",
"X X O X X X O # # # # # # * * * < 1 * * * 1 1 , > > n Y Q I G ` 8.6.5.7.1.(.#XoXoX#XT.7.9.5.5.0.' J P I W v - , : , 1 = = < * < * # # # % # # O X # X X @ @ # # ",
"X o X X X X X X O # # # # # # # * * * 1 < # , 1 < 1 n U ! Y G [ 0.7.t.8.2._.#X X.X%X!.8.9.t.0.i.{ J Q W Q c * , , * < < * * % < # * # # # O O O O O X O @ @ @ + ",
"X O X X X X X X X X O # O # @ # # , # # , # * , q w r s v s p b +.{ { +. .N.).^.^.`.m. .@.O.{ O.z p s d p y 2 : , : 1 1 * * # * # # # # X @ @ X # @ # X # # # # ",
"X X . X . X X X X X O O # O @ # # # # # # # # # < 4 4 = 8 2 % r J G J G A l.U.L.D.U.f.C I G G G t % = % : > - 1 : , * , * * * # $ # # X @ @ X X X X # @ X # # + ",
". X X X X X X X X O O X X @ @ @ O O O O O O O O # 4 4 3 q y 0 s ! Y I I S c.T.P.U.(.v.V Y P P W r & > > > : : 2 1 : : * * * # $ # # # @ X X @ @ X X X X @ # # # ",
"X X X . . X . X X X X X O X X X X X O . X X X O O $ $ 4 3 q 1 s W I I T S c.T.L.L.T.j.Z Y I U U r * 6 > > : : = 1 : 1 * * # # # # X @ @ X X X X @ X o # X + # # ",
"X X X . X X X . . X X . X X X X +   . O X . . + + + O $ < 3 % p D W I Q T n.E.Y.R.E.k.H Y Y P I r ; > < > 1 1 1 : : * % # # # # # O X X X X X X X @ @ + @ # # # ",
"X X X . X . X . X . X X X . X . .   . . . . . + . X X $ < 4 * w S V V V M h.R.K.K.Y.g.b A B V V r * 1 : : = 1 * * * * # # # @ @ X X X X X . X X o X X @ @ X X # ",
"X . X X . . . X . . . . . . . . +   .   .   . . O X O < $ $ , $ > 8 2 8 5 X.t.e.4.r.X.5 8 > 2 2 1 * 1 * 2 1 1 , # # # # @ @ # @ X O X X X X X X X X + X @ # X @ ",
"X o X . X X . . . . . . . . . .     . .   .   o O X O $ $ # , , 1 1 : : : X.r.4.4.r.X.- 6 > : * 1 > 2 : 1 # < $ # # # # @ @ @ X X X X X X X X O X X X @ X @ @ @ ",
"X X . O O . . . . . . . . . .     . . . . .   . X X X @ # # * 1 * 1 : 7 7 X.r.4.5.t.} 5 5 : * , > 1 , 1 , , * * * # # @ @ @ @ X X X . X . X o . O X X X O X . O ",
"O O X . . . . . . . . .         .   . .     . . X X X @ # * * * , 1 , : 5 X.t.4.q.t.} - 1 : 1 , 1 * * 1 * : # # # # O # X @ X X X X X X X X X X X X X X X X O O ",
"X X . O . . . . . .   .   . .   . . . . . . . . . X X @ # * * * # < * 7 6 o.0.8.9.i...5 5 1 1 , 1 1 * * # * # # # O O O O @ @ X X X X X X X X . . X . X X X O . ",
"O X O . O . . . . . .           . . X . o . . o . X X X # $ # : 1 < = > 5 R @.....#.H - : : * 1 1 * 1 , * # # # # # O O X X @ X X X X X X . X o . X X X . X O . ",
". O . X     . .     . . .     . . . . . X . . X X X X X # # * * < = ; > - m G G H K b - > * , , 1 * 1 * # # * # # @ # X @ X @ X X X X X X . + . . . . . . O O O ",
"O . X . + . . . .   . .   .   . X . . X . . . . X X X @ O @ @ * = = > 3 6 m K Y Y K b ; > : : , : : * * * # # # @ # X X O X @ X X X + X . + . . + . . . . . . O ",
"X X X . . . . .   . . . . . +   . . . . X . . . . X X @ O @ # 1 1 1 > > ; m Y P J Y m 6 > 1 , , , * * * * # # # # X # X O O X @ X X X X X X X X X . . . . . O . ",
"X X . X     + .   . . . . . .   X . . X . . . . X X X X # # $ # * 1 > ; ; m Y G P P n > = 1 , : 2 * * * * $ # # # @ X # X X # X + O X O . X . X . . X . . . . . ",
"X O O . . X . .   .     .   .   o . . . . . X X X X X # # # # , = : 1 ; 6 m I I Y Y b > > 1 1 , 1 * * # # # # # # + X X @ O @ X # X X X X X o . X . . X . . X X ",
"O X X . . . . . . .   o . o . o . o . o X X X . X X @ X # # # * 1 * > = > b J P P J x ; > : * 1 , * , % * # $ $ # X @ o # X # X + o X X X . X . X . . . . . . X ",
"X X . X . . . . o   . . . o . o o X o . X . X . X X X # # # * * 1 * > > 6 m Y Y Y Q b > 8 * * , 1 1 # * # # # # @ # X @ X X @ X X X X X . X . o . . . . X . X X ",
". O X . . .   . . . . .   o .   X . X X X . X X X X X # # # # * : 1 > 6 ; x I S G I x & 2 * * 1 * * * # * # # $ # X # X # O # O X X X X X X . . X . X . . . . O ",
"X . . . . O     . . .   . . . X X X X X . X . X X X O O # # # # 1 1 = : = n ! F J ! b ; > 1 1 1 1 * * * # % # # # o X + # @ @ @ X X X . . X . . X . . . X . X X ",
"X X X + . .   + . . . o . . o X X . X . . o o X X X O O O # # # * 2 = ; 0 c W I T W c > > : , * * * * # # # $ # # + # O O X @ X X . X X X . . o . X . X X X . X ",
"X X . . . .   . . . o . o o X . X o X X X X . X X X X O # O # , * * * * = i s a a a y = * = * , # , * # # # @ # # # # # O X X X X . X . . . . . . . X . X . . O ",
"X . + . . + . . . . . . o . X X o . X X X X X X X X X X X O # O # $ % * $ % % @ @ % = % * * # # # # % # # # # $ # + # # + @ X X X X X X . . . X . . . X O X X X ",
"+ X . . . . . . o . o . X X X X X X X X X X X X X . X X X X O O # # # # # # # & * $ * # # # # # # # * # * # # # # $ # @ X X X X . X . X O . . . . . X X X X @ # ",
"X X + + . + o . . o . o X X X X X X X X X X . X X X X X O O O O O # # # # # # # # # $ # # # # # # # # # # # # # @ @ # @ @ X X X X X X . . . . . X X . O X X # # ",
". X X X . . X + . o . o X @ @ X @ @ X @ X X . X X X X X X X X X O O X @ # @ # # @ @ # O # O O # # # # $ # # # # $ # O @ X X X X X X X . . X . X X X O X O # # $ ",
"X X + . + . . . . . X o X X @ @ @ @ X X X X X X X . X . X X X X X X @ X @ @ O @ @ # # # O O O # $ $ # # # # # @ @ $ # X X X X X X X . X X X X . . . O X O $ # * ",
"+ X X X X + O X o X @ X # @ # # X @ X X X X . X . o . o . X X X X o X o o # X # X # # # + @ @ # @ @ # # & + @ $ # @ @ X @ X X X X . . X . X X . X X X O # # $ < ",
"O X X . X X X . X o X X X # @ * @ @ X @ X X o . o . o o X . X X X o @ @ X X O X O X # X @ @ # @ # # # # # # $ # # # @ X @ X X X X X X . X . . . X X O O # , < * ",
"X . O X . . . X X X X # $ # # # # # @ X X X X . . . . . X X . X o @ X @ + @ @ @ @ O @ X # # # @ + + # # # # # @ # # @ @ X X X X X . X X . X X . X X O O # , < < ",
"X O O O X X O O o X @ # @ # # # # @ @ @ o X X o . o . o . X X X @ @ + @ @ @ @ @ X @ @ # @ # @ @ @ # # + # # # & # # @ @ # O O X X X . X . X X X X X O # , < * * "
};
