/* XPM */
static char *exit_texture1710912943[] = {
/* columns rows colors chars-per-pixel */
"80 80 236 2 ",
"   c #02030D",
".  c #030513",
"X  c #04071A",
"o  c #080719",
"O  c #05091D",
"+  c #090B1D",
"@  c #090A15",
"#  c #010523",
"$  c #060C25",
"%  c #090C24",
"&  c #030629",
"*  c #060C29",
"=  c #090D2A",
"-  c #090629",
";  c #0C1025",
":  c #05112C",
">  c #0B112B",
",  c #051026",
"<  c #11132C",
"1  c #010E31",
"2  c #0C0E31",
"3  c #051233",
"4  c #0C1331",
"5  c #091839",
"6  c #141434",
"7  c #131B35",
"8  c #15153A",
"9  c #19163B",
"0  c #15193A",
"q  c #1C1B3C",
"w  c #191837",
"e  c #110F36",
"r  c #221D3F",
"t  c #16213E",
"y  c #20203C",
"u  c #1D1C41",
"i  c #211E41",
"p  c #182245",
"a  c #1F2F52",
"s  c #242647",
"d  c #352F52",
"f  c #233254",
"g  c #283559",
"h  c #3A395B",
"j  c #292F50",
"k  c #3B3E61",
"l  c #283D63",
"z  c #4B3F63",
"x  c #39486C",
"c  c #3D4C75",
"v  c #3E5473",
"b  c #2F456E",
"n  c #454265",
"m  c #44436B",
"M  c #4A466D",
"N  c #4C4B6D",
"B  c #494867",
"V  c #514B6D",
"C  c #52476F",
"Z  c #53516F",
"A  c #4A4674",
"S  c #454A74",
"D  c #4C4B73",
"F  c #454C7A",
"G  c #4C4D7B",
"H  c #464674",
"J  c #524B74",
"K  c #544B7A",
"L  c #574A76",
"P  c #44547C",
"I  c #4C537C",
"U  c #495578",
"Y  c #545073",
"T  c #595274",
"R  c #52537C",
"E  c #515B7F",
"W  c #44526F",
"Q  c #4D5381",
"!  c #485A83",
"~  c #535684",
"^  c #535B84",
"/  c #565B87",
"(  c #4C6386",
")  c #5A6789",
"_  c #5B6E92",
"`  c #596C96",
"'  c #5D729B",
"]  c #5C7297",
"[  c #4F6690",
"{  c #686E95",
"}  c #63749B",
"|  c #6A7D9C",
" . c #677599",
".. c #71779A",
"X. c #65688A",
"o. c #5F7AA5",
"O. c #6B76A4",
"+. c #6C7DA3",
"@. c #6C7BAA",
"#. c #667AA5",
"$. c #747CAA",
"%. c #6E7EB0",
"&. c #717EB2",
"*. c #6B829E",
"=. c #67809E",
"-. c #6B82A3",
";. c #6584AC",
":. c #6C85AC",
">. c #6D89AC",
",. c #6A88A5",
"<. c #7185A4",
"1. c #7384AD",
"2. c #738BAB",
"3. c #798BAC",
"4. c #7A83AC",
"5. c #7891AB",
"6. c #6686B4",
"7. c #6C86B3",
"8. c #668CB6",
"9. c #6D8BB5",
"0. c #658CB9",
"q. c #6D8DBB",
"w. c #6A87B8",
"e. c #7484B2",
"r. c #7983B4",
"t. c #738BB4",
"y. c #7A8CB5",
"u. c #738CBB",
"i. c #7A8CBB",
"p. c #6E90BB",
"a. c #6E91B7",
"s. c #7A91B4",
"d. c #7392BC",
"f. c #7B93BC",
"g. c #7694B8",
"h. c #6E8EC0",
"j. c #728CC1",
"k. c #6C91C1",
"l. c #7492C1",
"z. c #7B94C3",
"x. c #7A99C4",
"c. c #948EA4",
"v. c #9793AA",
"b. c #8597B8",
"n. c #8B92B0",
"m. c #8FA4BD",
"M. c #93A4BB",
"N. c #97A9BD",
"B. c #99AABE",
"V. c #95A4B7",
"C. c #A7A7B9",
"Z. c #839CC4",
"A. c #8A96C4",
"S. c #999FC1",
"D. c #8BA5CB",
"F. c #8BA8CA",
"G. c #9CACC3",
"H. c #93ACCC",
"J. c #98A6C7",
"K. c #99B2CA",
"L. c #8BA8D2",
"P. c #94ACD3",
"I. c #9BAED4",
"U. c #94ADDB",
"Y. c #8EB0D8",
"T. c #9BB3D3",
"R. c #99B5D9",
"E. c #A5AEC7",
"W. c #A6B5CB",
"Q. c #A9B4C9",
"!. c #ABBBD4",
"~. c #A4BCDC",
"^. c #AABDDA",
"/. c #A5B7D4",
"(. c #B2BDD9",
"). c #AABEE3",
"_. c #A4BEE2",
"`. c #ADC2DB",
"'. c #ADC4D6",
"]. c #B8C1D5",
"[. c #B3C5DD",
"{. c #B9C5DB",
"}. c #B3C9DD",
"|. c #BAC9DD",
" X c #B4C4D4",
".X c #ADC5E4",
"XX c #ADC5EA",
"oX c #ABC7E7",
"OX c #B2C6E3",
"+X c #B4CBE3",
"@X c #BACBE4",
"#X c #B5CCEA",
"$X c #BACDEB",
"%X c #B9C6E7",
"&X c #B6D1ED",
"*X c #BCD2EB",
"=X c #B8D2E7",
"-X c #AFCAF2",
";X c #B8CBF4",
":X c #B7D2F1",
">X c #C3CCDD",
",X c #C8CFDF",
"<X c #C7D2DD",
"1X c #D5D1D8",
"2X c #C3CDE3",
"3X c #C5CDE7",
"4X c #C3D2E4",
"5X c #C5D5EB",
"6X c #C9D5EB",
"7X c #C7D8EA",
"8X c #CAD8E8",
"9X c #D9D8E6",
"0X c #C8D6F4",
"qX c #CAD5F3",
"wX c #E6DFE5",
"eX c #D9E2E9",
"rX c #DCE9F4",
"tX c #DCEBFB",
"yX c #D8E5F4",
"uX c #E4E3E4",
"iX c #E6E5EB",
"pX c #E9E6EC",
"aX c #E8E9EB",
"sX c #E4E6F3",
"dX c #E5EBF4",
"fX c #EAEBF4",
"gX c #E3ECFB",
"hX c #EBEDFB",
"jX c #F3EDF9",
"kX c #EAF3F6",
"lX c #E5F2FD",
"zX c #EBF2FE",
"xX c #ECFAFE",
"cX c #F3F2FE",
"vX c #F2FEFE",
"bX c #F9F4FD",
/* pixels */
"% $ $ $ % = $ $ = $ , = = * % * = % * $ * = = * = * % % O O O X . @ @       . @ @ @ @ @                 . . . X O # % % $ $ $ = * $ $ % , + O @ . .             ",
"% $ $ $ * = $ = * % $ * $ $ % , = = $ = * * * * $ $ $ $ $ O O O .       @         .                     . . X X O % $ $ = $ $ = $ $ , $ % + o .                 ",
"= $ % = = % % $ $ * % % = , = $ , , $ , % , = % $ , , % % O O X X . .   . . .                           . X . O # % $ = % * $ = $ $ $ + O . .                   ",
"$ $ = % , $ * = = $ * $ $ * % * $ $ * $ * % * $ $ $ $ % # O O O . . . . .   .   .   .                 @ . X O % % % $ $ * % = $ , % % O . .               .     ",
"* % * % * $ * , * % = , % , = % % , % $ $ * , $ $ * , % % + O O . . . . . . . . . . . . . . . . @ . . X X O + $ % = * $ $ * % * , , O O                     . . ",
"$ * $ % $ = % $ % * $ % * $ * $ % , $ % = % = * * $ $ % $ % $ O X X X X . . . . X . . . . . . . . . X O O O $ $ = = % $ = $ % $ + O X                     . . X ",
"= = * * $ * , * , = $ * % $ % $ # + % $ $ * * % % , = $ $ $ % + , + X O O O O O O O X X @ X X X X O O + % $ % $ $ $ $ = * $ * % O X . .                 . X X O ",
"* * = * * % % = * $ % , $ $ % , $ % % $ % , $ , * $ % * % $ % % , O $ O % + # # O + , , O , % + , , ; % % % $ $ = , , * $ , $ % O X @ .   @             . O # % ",
"* * * * , * * , % $ $ % % $ O O , O O $ $ , * $ $ = % * % % $ $ , % % % $ % # % $ , % $ % $ $ $ $ $ $ % * % = , * * , % = * , $ O X . . .             . O % % % ",
"* * = = % $ $ $ % , $ $ O $ $ O O O $ O O $ $ $ $ $ * % * % $ $ % , $ $ * $ $ $ $ $ * $ $ $ = * , $ = , $ * $ % * = * $ * % $ % O X X . .           X O + $ * % ",
"= * * $ * % , % % % % % # O O O O O O O $ $ $ * * = * * % * * = = * * * * * * * * = = * = * * = = * * * = * % * % % * $ * % $ % O X X X . . . . . O + % % $ , * ",
"* $ % = , * % $ $ % O O O O O O O O , O O $ $ , * * = * % * % $ $ * * * = = = = * $ * = * = * * * * * * = * * $ $ * $ = % * $ $ O O @ X @ X . . X O + % , $ * * ",
"% * $ = % % O # # # % + O O O O O O O , % % $ $ = * * = $ = - * $ = $ * $ $ , = % * = * = * = * * * * = $ $ = = , $ * $ * $ % $ $ X X O O X X O O # % ; $ % * * ",
"* % $ $ % % $ O + O o + + + O O X X O O O # $ * * = = * * = * * $ $ , $ * , % * * % * * = * * = * , * * * , $ , = * % = $ = % $ O + O O o O % o + % % % * % * * ",
"$ * $ $ % # + # % o + + + ; + + O X O O $ O * % = * $ * = * = $ $ % % % $ $ % % $ % % = $ $ * * * * , $ * $ = , % $ $ $ = % = $ % + O O # % - % $ $ $ $ = * , * ",
"$ $ $ $ # O % O X O o @ + ; ; + , + $ O $ $ % * $ $ = $ = $ $ $ $ , % % % % , = , % , = % = = % * = $ * $ * $ % $ $ % % % = % # ; # % % % $ $ $ = $ = * = , = * ",
"$ $ $ O # O + O O X O + O + ; + + + % % % $ $ * % , $ , % % % % % $ = % X # $ - $ # $ $ # # - % = = = $ , $ % % $ = $ = % % % $ $ $ $ % $ % % * % = % * * $ $ $ ",
"$ % O O O + X X . . @ + X @ ; + O O # % $ $ $ , * , $ , % + $ = = $ = w i r r r s p 0 s y q r q = % * $ $ % % $ $ $ * * = % % % , $ % $ = $ * % * , = $ % * % % ",
"O O O O O O X X @ X + + O + ; + O O % % $ % * % * * * * * = * = $ & % d L T T L L L K K L L L B = = $ , $ $ % $ $ , , * * * $ , * * * * * * * , $ = $ $ * % % % ",
"$ O O $ X X . X + + + + + + + O + % % , % $ $ * * * 3 * , * * * 2 = - d L C C J L K K K J K J z = * * $ $ = = % * , , * * , , $ , * * * * * * * $ $ = , % % $ $ ",
"O O O O O X X + O O o O O % + O % $ % % % $ * * = * * * & = 2 = - - # j Y M N D A F A D S D M x - = & * & * * * , $ , % # % , % , * * * * * * = * % $ $ % % % % ",
"O O O @ + + + + @ + ; + X X + % % % , = * $ * * = = = 8 9 8 8 8 9 u e k / E ^ ~ Q / ~ ~ ^ ^ E W u 8 8 0 8 w w 6 4 * * % % % , % * * * : * * * = = , = $ % $ $ % ",
"O O @ O + ; + + + ; ; + O # # % $ $ * * * * , = - = < h A Y V Y J J A { i.t.9.9.u.t.u.t.r.t.r.@.S A J J J J J J 6 = % % - % = % * * * * * $ $ = * $ % * * % = % ",
"X , ; + + + + + % + + O % % % = * , , * , * * * = = - n Y J N J K A F } u.q.q.p.p.q.q.u.u.u.q.%.F J J J J J J J 9 = - 2 % = = * * % $ $ % $ $ = % * , = * , $ * ",
"X ; + + o + + ; < O % + # , > $ $ $ * , , $ = = = - - n N J A D A D M ' z.w.0.h.8.8.q.9.u.u.j.%.S L J M J J A D 9 - = - 4 2 * * = % % % % % % $ % % = , * $ * * ",
"X + ; + ; ; + + o O % $ $ * $ = * , , # $ $ $ = e e e N R R Q Q R U P ' j.h.k.0.d.d.g.g.i.j.z.i.I R R G I I I Y u 2 2 6 = * 1 * $ $ % % % + + % $ % * % * * * * ",
"X , + X % ; , + , % # % , > & 3 $ + % % % % 6 n N M A $.&.&.&.7.2.t.:.9.u.q.q.D.-X+XoX+X%X.XXX).y.e.y.r.e.:.r.4.I M B B q $ - = = % # $ ; % - % % % $ * * * * * ",
"X O X + ; ; + O O $ , $ & * $ * $ % ; % % = , M J A J $.j.i.j.q.9.d.u.q.q.q.7.D.:XOX@X=XOXOX#X).f.d.l.u.j.u.u.y.^ V V T t # = = $ , , : % % + % % $ $ = * , * * ",
", , O # , % O + % $ $ $ $ 3 * * = * * * * & 2 M D D G @.j.i.h.h.q.q.q.u.u.e.1.H.$XOX@X+X+X+X@X~.9.p.l.0.k.0.0.t.~ N L L r # % * 3 * * * , > > , * % * * = $ $ = ",
"; ; O O % O % , , $ = : * $ $ : 3 1 3 3 3 * u k G R G $.i.u.0.k.p.q.9.a.t.3.3.m.*XOX$X.X`.+X@X~.,.q.k.p.0.0.p.u.~ L L z y * 3 3 3 3 * 3 3 & * * * $ , % $ $ = $ ",
", , % % % % % % # = = * & $ a  .' o.o.' '  . .R D K F $.i.u.q.Y.oX_.~.4XtXrXyX7X}.OX+XoX+X.X@X[.^.)..XR.k.8.q.e.Q A z ~ ) } #.' ' } } -.x * * * , * = $ $ $ $ $ ",
"> < > % % % , $ , > $ $ : # a b.u.l.p.l.d.f.r.Q F G F $.i.e.8._.$X$X|.yXvXxXxXyX[.[.#X+X$XOX$X@X3X%X$XXXd.8.q.i.~ K Q H $.z.z.u.d.f.9.f.P * 3 * * $ $ * = % = $ ",
"2 * & $ , % = % * : , , , # f i.q.0.8.q.7.7.r.Q G I F 1.i.t.g.R.$X@X XeXxXkXxXeX{.[.[.$X^.XX*X'.}.`.+XXXa.0.p.u./ A / F %.&.j.w.u.7.9.g.W , 3 * * , $ , $ = * = ",
"& * > $ $ # $ $ & * * $ & & a 3.e.7.g.>.i.i.r.Q F F c @.t.2.2./.@X X XyXxXxXlXtX{.$X$X%X%XOX.X}.+X-X#XoXl.8.q.u.Q A z A O.j.r.b.y.r.-.2.v $ * * $ # > , $ = = = ",
"* % $ - % > % % > * g ` ` ( | qX>X3XQ.) ^ ( / O.O.@.#.P._.T.T.0XgXrXgX Xm.K.F.F.F.D.F.F.#XOX}.`.Z.x.Z.Z.a.8.8.a.J.J.J.J.{ / / Q V.3X2X6XF.( [ ` x * % % % % , * ",
"O % ; = = % O , $ O b x.l.d.G.lXhXcX9XN D m G y.r.i.u.).:X$X$XtXvXvXvXW.| 2.9.8.8.6.>.F.#XOX|.^.9.7.9.u.u.d.a.>.).3X3XqX{ H K z C.bXfXlX[.t.z.z._ $ % ; ; % # $ ",
"; + % $ - = % : : # b x.t.2.M.rXuXpX1XB Y Y ^ @.u.t.t.oX.X@X`.tXvXkXvX'.-.f.u.l.g.p.a.F.$X`.%X_.u.8.q.d.q.q.u.u.~.3X%X(...H L z C.kXwXhX(.-.9.f.` # 4 - # , $ $ ",
"$ , $ = = $ & O $ & l t.-.| M.lXgXcX9XV V m I 1.7.:.:.~.$X@X@XtXkXxXvXW.*.g.u.q.8.a.,.x.#X#X;X).d.a.p.a.q.7.7.:.~.$X|.3X..z ~ z C.zXgXlX^.<.-.3.! & * & $ = , $ ",
"* , = $ * & l ^ ! W ..|.|.].!.K.K.^.M.z J K G J.T.K.H.+X=X|.}.7XeX8X7X'.H.T.P.Y.Y.R.H.H.L.D.L.L.a.7.8.p.U.U.U.T..X}.%X3XO.z ~ z <.~.I./.!.(.].|.J.P ! ! x * $ $ ",
": $ $ * > & P Z.d.y.!.zXdXzX5X=.;.@.O.Q G D ~ OX#X&X$X+X=X+X}.'.'. X'.+X+X+X+X&X&X&X&XR.7.6.q.w.p.q.9.d.-X;X;X$X+X+X).qX{ z K Q ] 9.6.+./.cXkXzX$Xy.d.x.+.3 * * ",
"* : , , $ # P u.7.:.E.gXiXrX@X3.u.l.@.Q G G ^ (.OX@X+X+X}.+X+X}.}.}.+X=X+X[.'..XOX`.+XR.9.l.d.q.u.p.a.d.-X#X%X+X+X+X+X$X..A Q G ' d.d.2.W.gXiXrX{.-.q.q.' 1 & = ",
"3 * % , % # P A.i.y.!.hXgXzX*X*.>.1.O.m m n V (.@X}.+X#X=X=X#X&X'.=X&X&X$XOX@X$X$X#X&X`.>.,.9.7.8.6.;.a..X#X$X#X+X&X+X0XX.h m k X.<.1.+./.gXrXxX6Xs.f.b.+.1 2 * ",
"* O , ; % $ g E P c +.oX/.'./.W.W.Q.E.c.c.c.v.(.@X=X#XT.F.P.L.D.P.P.P.P.I.I.P.P.P.I.P.P.H.F.F.H.P.L.L.H..X+X+XOXY.Y.Y.T.v.c.v.c.C.Q.Q.E.!.'.W.+Xb.v W U m * 1 2 ",
"$ $ + + % % * & & # l g.>.-.M.lXdXkXjXbXcXcXhX,X|.+X.Xf.9.d.d.q.d.u.t.9.u.u.7.8.6.u.7.x.&X&X+X=X&X&X&X$X@X@X%X#Xg.8.a.,.6XbXjXbXfXjXhXcX(.*.>.2.E O # X # 3 0 u ",
"% + % $ % = # $ > & b f.9.1.M.gXaXuXuXeXwXsXyX>X|.OX$Xb.e.u.z.x.9.l.l.8.q.q.p.q.q.u.q.Z.#X#X@X.X.X+X+X}.|.|.|.#Xx.9.t.<.2XfXwXwXwXpXiXcX!.*.a.u.( $ , ; = = 0 > ",
"% % $ = * $ % < , & x x.g.s.I.gXdXaXkXkXsXlXyX>X{.}.`.s.-.<.e.3.:.t.>.;.;.7.>.>.;.7.>.b.OX+X|.|.|.|.|.}.{.{.|.{.5.-.2.<.2XzXhXhXhXkXdXgX}.y.f.Z._ $ , % % $ 6 q ",
"% % 1 * * $ % # * $ f ) ) U *.5X@X@X}.@X|. X>X>X<X4X=XB.B.B.G.G.E.G.M.G.G.B.N.B.B.G.V.Q.6X3X,X>X,X2X6X2X,X,X<X<XW.N.G.V.!.@X%X@X@X@X}.=Xm.E / ` x * > * $ , % 7 ",
"% = * * * = < % * , * & $ # a 3.1.t.2.*.5.*.5.yXdXrXdXrXkXdXaXkXrXdXgXsXdXdXdXdXkXdXfXkXsXsXfXfXfXsXgXdXdXdXaXaXdXgXgXlXB.*.2.:.,.>.,.2.v # 1 & & 3 $ : % % % ; ",
"$ , $ $ * % % % * > * * 1 & f s.u.u.9.9.2.3.s.yXrXyXuX9XuX1XaXuXuXwXuXaXaXpXpXaXaXiXiXiXiXiXiXiXpXpXsXpXaXpXuXaXuXaXeXgXK.>.d.0.u.u.;.f.P * 3 * : , * , , % % $ ",
"$ $ $ $ % % $ % , $ * : 1 & j b.u.l.l.g.y.y.b.yXgXgXfXdXfXaXaXaXsXdXkXgXpXfXaXkXfXfXfXdXfXfXdXdXsXfXfXfXfXaXaXaXaXjXlXtXJ.e.z.l.i.j.f.Z.P & * , , * % % % $ % % ",
", * $ , $ $ % $ * $ * * 1 * j  .' ' ` ] } _ ] @X0X7X6X5X4X5X4X4X6X5X7X7X8X7X7X=X7X8X7X8X5X6X6X6XqX6X6X6X5X8X6X5X8X6X6X0Xs._ } ] } ' ]  .x * * * $ $ % $ * $ * * ",
"$ $ $ % $ $ % % = % * $ * * & * * 1 3 3 3 : 5 =.5.3.,.s.s.,.2.t.>.>.,.2.2.,.2.2.2.2.2.2.<.2.2.1.1.2.2.2.1.2.2.2.2.t.2.3.g * : * 1 1 1 1 : $ : * * $ % % , $ * * ",
"* * = $ $ = % $ $ $ > * * * * 1 > $ * : 3 t p | g.f.u.d.d.7.h.w.d.u.9.a.q.7.q.q.8.q.a.9.q.t.u.i.u.u.u.u.t.q.u.q.u.0.7.f.a O > $ = 2 * * = = = % % = - = * * * * ",
", * $ $ * $ % % $ $ * * : : * & % % $ * 5 5 5 2.f.g.i.t.q.j.j.j.u.t.u.q.7.j.w.q.q.a.p.q.q.h.q.u.u.u.u.i.u.i.q.j.j.u.u.x.f # , + O % = * % $ - % = % = = = * , * ",
"= * = * % % * * $ * * $ $ $ : , # ; ; $ > : t *.4.-.+.e.e.r.&.&.r.&.e.i.A.j.z.u.q.k.k.q.0.h.h.q.7.7.e.e.e.e.e.e.;.@.;.-.f & % , ; % - % % % % % $ % $ = $ $ $ $ ",
"= * * = * $ * % * $ $ , * * * * $ % + ; O t 7 7 4 5 5 x I G Q Q Q Q H A.;X-X-XU.q.q.q.q.h.h.w.7.! F F I G G G I p 3 5 5 : * = % % % + o o % % # $ - $ % $ $ * , ",
"* * $ = * % = , * $ = $ * , $ * = % $ = * , 4 7 & = = k J A L J L A M n.3X;X;XU.7.9.a.a.0.q.q.;.W D N J C C J A u & * , * * * * $ O O O O # $ O % + $ , $ $ , + ",
"= = * * % * $ $ * $ % , $ * * % = $ $ $ = , > > * = = z T V V C V C n n.qX).qXI.e.t.d.q.u.u.u.:.W N V J L L C J w & , , $ * & $ $ O O O $ + $ $ # % # O O + , , ",
"* * * = , = $ = $ % * * $ % , % $ * * * = * * , * * = h Z N J V Z Z B n.3X(.).I.1.3.e.t.2.i.i.+.W D C J C J C N 7 $ % + + % % # # O O O X O $ O O $ $ O , + , + ",
"$ = * = * $ * % , = * % $ , $ % = * $ * = * * * = = = 0 0 6 6 6 w < < h X./ X./ E I I ~ Q ~ Q S 6 6 6 e 8 8 8 6 > $ O % + o % + O O O O X O X O O O O O O $ % $ ",
"$ * $ $ * % * $ = = % $ $ % % , = = = * * = * - & > * * & & * * - % - j C n M D D G D G A K G z = = = - * * * * % # % + + + + + O O X X O O O O O O # O % $ $ % ",
"= $ $ = % * , = $ $ * $ % , % % = = - * = $ = = = = * * * > 3 > = - # h K J D D J D A J C A J M = = * * * , * * $ % # % % o % o o O X X . X O X O O O , $ $ $ , ",
"$ $ = $ $ , $ $ $ $ $ $ $ $ $ $ $ = $ $ $ $ % % = $ * $ $ $ # $ = = & d D J L J L J L K J J J B = = = $ , , % ; # % % % ; + % o o o X o X X @ O O O % $ % * * * ",
"= % * $ * $ $ $ % $ % # % % # $ $ = % $ - $ % % % $ , $ $ , % = $ = = 7 q s 0 u i q q i q q r 9 = = % # O O O + o % X % ; % % + % @ o o o X O O O O O $ $ * * * ",
"= $ $ , = $ % O , O O O , O , + $ $ $ $ * % = , % = , = $ * % , = % = % * $ - & $ $ - $ $ $ & $ $ $ , $ O O O O + O % + + o + + @ X X o X o X O O $ O $ * $ $ * ",
"* $ % % % % O O O O O O O O O O $ $ $ * $ = $ * * $ % * * % $ = , % = * * $ = * * * * * % * $ * % $ O $ $ $ O O o X + + @ O + @ o @ X X O O # O $ $ $ $ * $ , * ",
"= $ = % $ $ O O O O O O , + , + $ $ $ * , % $ = % * , $ % = * % $ , $ = = = = * = = * = * , $ $ % # O O $ O O O + + + + O + + X . X o @ O O $ O % $ $ $ , $ * $ ",
"% $ $ # O O O O O O O O O O O , $ $ $ $ * % * % * $ % = * , $ * $ % * , $ $ * $ * * $ $ , $ $ $ $ + $ + O O O O ; + % % o o o @ X X O O O O O $ $ , $ , $ * $ $ ",
", O , O O O O X X X X O O O % + $ $ $ $ * $ * , = , = $ $ * , % , = = % $ = % = * % = $ % $ $ $ O O O + O O O ; O + + O X X X X O O O O , , + % $ $ O $ # % # % ",
"O O X O X O O X O O O O $ O + % $ $ $ * , $ * % * $ $ * = $ $ = * % % * = , = , % * , $ $ $ $ $ + O X O O + + + X + + O X o X X O O O O + O + $ $ $ $ $ % % % % ",
"X + + O + O X X O O O O O $ % # $ $ $ $ * % , $ % * = % % * * % = $ = , $ * = $ * $ % $ $ # + O O + @ + + + , O + % o O X X O O O O O $ $ + $ O O $ O % + % % % ",
"X + + + @ + + X O O O O $ O % # $ $ $ & * $ = * * % , $ * $ = , , = $ $ = $ $ * = % % = % % + O O + ; + + + + + O O O O o o O O O O O , O $ $ O $ O % + # O + % ",
"X O + + + ; + + + O % $ % $ % $ = , $ = % * % , , % = $ = * % , * $ % = $ % * % $ % % $ % # O + X ; + @ O + + + O + @ O O + + + O + O + # # + O O O O O O O O + ",
"X + @ X + + + + O O O % % % % * $ % * % , % * * % * , $ $ $ * = = , * , * * $ * % $ % % O O + o X ; + + ; + + + O O O O O O $ O % # # $ O O O O X O O O + # # % ",
"+ + O X O O O X O O $ % * $ * $ * % * , = * * % * % * $ * = % * * % = , % $ = % # % % O + O O O o O @ + + + o X O O O O O O O O O $ O + O O X O X O X O O + O O ",
"+ + O @ O O X O $ $ % $ % * % = % * $ $ = $ $ = , = $ = $ , % $ % * $ % , = % $ % + $ O O O O + O O . @ o + O O O O + + O , O O O O O X O X X O X X X o O O O O ",
"+ + + + O O O O $ % , % = $ * * , $ % * $ = $ % = = * % = * , % = $ = * $ , % % $ O O O O + + % + o X X + O X + O O $ O O O O O O O O X X X X . X X X O O X O $ ",
", + + X O O O , $ % * $ % * = * = * , $ * % * , $ , $ $ $ $ $ = , * $ $ $ % # % O $ O O o + ; + % + o o o O X + O O O O O O O O O O X X X + o o X X X O O O O O ",
"; + @ X O O # % $ $ * * * * * = * % = = , = = % $ * = * % * * % * % $ $ $ $ # % # + # + + + + + + + @ X O O O # O O $ X O O O O O X X X O O @ O X o X X O O O O ",
"; + X O , $ $ % $ $ , $ , * * , , * $ $ $ * $ , * % , % * $ = , % * , * $ $ % % ; % + % + ; + ; ; + % X O o % o O O O O O O O X % + ; + O @ O . X o X X O O $ O "
};
