/* XPM */
static char *IMG_10581710913340[] = {
/* columns rows colors chars-per-pixel */
"80 80 162 2 ",
"   c #000106",
".  c #020107",
"X  c #010206",
"o  c #000207",
"O  c #010207",
"+  c #020307",
"@  c #000008",
"#  c #010008",
"$  c #010109",
"%  c #020109",
"&  c #000308",
"*  c #000209",
"=  c #030208",
"-  c #020308",
";  c #00000A",
":  c #00010A",
">  c #01010B",
",  c #02000B",
"<  c #00030A",
"1  c #00020B",
"2  c #02020A",
"3  c #03020A",
"4  c #03030B",
"5  c #04030B",
"6  c #010409",
"7  c #030409",
"8  c #01040B",
"9  c #00000C",
"0  c #00010C",
"q  c #00000D",
"w  c #00010D",
"e  c #00030C",
"r  c #00020D",
"t  c #02020C",
"y  c #03030D",
"u  c #00010E",
"i  c #00020E",
"p  c #00030E",
"a  c #00020F",
"s  c #00030F",
"d  c #01030F",
"f  c #03030F",
"g  c #00040D",
"h  c #01040D",
"j  c #02050C",
"k  c #01050E",
"l  c #00040F",
"z  c #02050E",
"x  c #02060F",
"c  c #03060F",
"v  c #04040C",
"b  c #05050D",
"n  c #04040E",
"m  c #05050F",
"M  c #000110",
"N  c #010310",
"B  c #000211",
"V  c #000012",
"C  c #000112",
"Z  c #000312",
"A  c #040311",
"S  c #000410",
"D  c #010510",
"F  c #010511",
"G  c #020410",
"H  c #020411",
"J  c #030511",
"K  c #020611",
"L  c #010413",
"P  c #030512",
"I  c #020413",
"U  c #020612",
"Y  c #030712",
"T  c #030713",
"R  c #040410",
"E  c #050511",
"W  c #040710",
"Q  c #060610",
"!  c #050412",
"~  c #060513",
"^  c #040612",
"/  c #040613",
"(  c #050713",
")  c #060612",
"_  c #070713",
"`  c #000314",
"'  c #020514",
"]  c #030514",
"[  c #010715",
"{  c #030615",
"}  c #020516",
"|  c #010717",
" . c #030617",
".. c #050714",
"X. c #040615",
"o. c #040517",
"O. c #040716",
"+. c #050716",
"@. c #040811",
"#. c #020816",
"$. c #030917",
"%. c #040814",
"&. c #050915",
"*. c #060814",
"=. c #060815",
"-. c #070915",
";. c #060A15",
":. c #050817",
">. c #070916",
",. c #060817",
"<. c #060A16",
"1. c #070B17",
"2. c #080A16",
"3. c #080A17",
"4. c #030619",
"5. c #040718",
"6. c #060719",
"7. c #04071A",
"8. c #020818",
"9. c #030919",
"0. c #03081B",
"q. c #050819",
"w. c #060918",
"e. c #070918",
"r. c #070A19",
"t. c #05081B",
"y. c #06091A",
"u. c #040A1A",
"i. c #050B1B",
"p. c #070A1B",
"a. c #04091C",
"s. c #04091D",
"d. c #06091C",
"f. c #06081D",
"g. c #050A1D",
"h. c #070A1D",
"j. c #07091E",
"k. c #050A1E",
"l. c #060B1E",
"z. c #060B1F",
"x. c #070C1F",
"c. c #090B18",
"v. c #080A19",
"b. c #080B1A",
"n. c #090B1A",
"m. c #0A0C18",
"M. c #090C1B",
"N. c #0A0C1B",
"B. c #080B1C",
"V. c #080B1E",
"C. c #080A1F",
"Z. c #090C1D",
"A. c #090C1F",
"S. c #0A0D1E",
"D. c #070C20",
"F. c #090B20",
"G. c #0A0D20",
"H. c #0A0C21",
"J. c #0B0E21",
"K. c #0A0C23",
"L. c #0B0D24",
"P. c #0C0E25",
/* pixels */
"n n n y 4 4     7 7 7       7   7       7     4 4   4 4 4 4 4 4     7       7 7 7 7 7 7         7 7       7 4 4 4 4 4 4 4 4 4 4 B y g g g y   4 4 4         7 7 ",
"n n y y 4 4 7 7   7 7 7 7   7       7   7   4   4 4 4 4 4     4   4     7     7 7 7   7   4           7 7 7 4 4 4 4 4 4 4 4 4 4 g y g g y y 4 4 4       7       ",
"y y y y 4 4   7 7 7 7     7       7   7     4 4 4     4 4 4 4 4           7                 7 7       7 7   4 4 4 4 4 4 4 4 4 4 7 y 4 4 4 4   4 7     4 7   4   ",
"y y y y 4 4 7 7 7             7   7       7 7 4 4 4 4 4 4 4   4   4   7       7     4   7         7     7   4 4 4 4 4 4 4 4 4 4 4 4 4 4   4 4                   ",
"y y y y 4 4 7   7     7 7 7       7         4 4 4 4   4 4 4 4 4 4     4 4   4   4   4   4   4     7     7 7 4 4 4 4 4 4 4   4 4   7           7   7     7       ",
"y y y y 4 4 7     7           7   7   7 7 7   4 4   4 4 4 4 4 4 4 4 4 4 4 4 4 4 4   4 4 4 4 4 4   7 7 7   7 4 n 4 4 4 4 4 4 4 4 7     7 7 7         7   7       ",
"y y y y 4     4   7 7         7     7     7 4 4 4   4 4 4 4 4 4 4 4 4 4 4 4 4 4 4 4 4 4 4 4   4 7 7 7 7 7 7 7 3 4 4 4 4 4 4   4   X X 7     7   7 7     4 4   4 ",
"y y y y 4 4 4           7 7     7         7 4 7 4 4 4 4 4 4 4 4 4 4 y 4 4 4 4 4 4 4 4 4 4 4 4 4 7 7 7 7 7 7 7 y 4 4 4 4 4 4 4   X X X +   7           7   4 4 4 ",
"y y y y 4 4 7   7     7       7     7 7   7   7 4   4 4 4 4 4 4 4 4 4 4 4 4 4 4 4 4 4 4 4 4 4 4 7 7 7     4 4 4   4 4   4   4       7 7 X X   7     4   4 4 4 4 ",
"y y y y 4 4 7 7 7     7   7     7     7   7 4 4 4 4 4 4 4 4 4 4 4 4 4 4 4 4 4 4 4 4 4 4 4 4 4 4     7 7 4     4 4 4 4 4 4 4 4   7       X X   7     4 4 4 4   4 ",
"y y y y 4     7         7   7   7       7 7 7 4 4 4 4 4 4 4 4 4 4 4 4 4 4 4 4 4 4 4 4 4 4 4 4   7 7   7   7   4 4 4 4 4 4 4 4 4                   4 4     4 4 4 ",
"y y y y 4 4 7 7   7 7       7       7 7 7   4 4 4   4 4 4 4 4 4 4 4 4 4 4 4 4 4 4 4 4 4 4 4 4 4 7   7 7   7 4 4   4 4   4 4   4     4     7 7         4 4 4 4 7 ",
"y y y y 4         7 7       7     7   7 7   4 4 4   4 4 4 4 4 4 4 4 4 4 4 4 4 4 4 4 4 4 4 4 4 4 7 7   7 7   4 4   4 4     4 4       4 4 4   4 4 4 4   4 4 4 4 7 ",
"y y y y 4 4 7 4         7   7     7   7 7 7   4 4 4 4 4 4   4 4 4 4 4 4 4 4 4 4 4 4 4 4 4   4     7   7 7   4 4 4 4 4 4 4     4     4   4 4     4 4 4 4 4 4 4   ",
"y y y y 4 4   7 7 7   7 7 7 7         7   7   4 4     4 4 4 4 4 4 4 4 4 4 4 4 4 4 4 4   4   4 4 7   7 7 4   4 4 4   4 4 4 4 4 4   4 4     4   4 4 4 4   7 7 4 4 ",
"y y y 4 4 4 7 7   7 7 7     7 7     4 7   7 4 4 4 4 4 4 4 4 4 4 4 4 4 4 4 4 4 4 4   4 4 4 4 4 4 7 7 7       4 4   4   4     4   4 4   4 4   4   4 4 4 7   4 4 4 ",
"7 g 7 g 4     7     7 7 4     4 4   4 4 4 4   4 7 7 4 4 4 4 4 4 4   4 4 4 4 4 4 4 4 4 3 4 3 + 3     7 7 4   4 4   4 4 4 4 4 4 4     4 4   4 4 4 4 y 4 y y 4 y 4 ",
"g 7 g 7   4 7     4   7 3 3 4 4 4 4 4 4 4 4 4 4 4 4 4 4   4 y 4 4   4 y 4 4 4 4 4 7 3 7 3 7 7 7 7 7 7       4 4 4   4 4 4 4 4 4 4   4     4   4 4 4 y 4 4 y 4 y ",
"7 g 7 g   7 7         4 4 4 4 4 4 4 4     4 4   7 4 4 4 7 y 4 y 4 4 4 7 y n Q A n n n Q n n 7 n   7       4 4   4   4 4 4     4   4 4   4 4 4 4 4 4 4 y y 4 4 4 ",
"g 7 g 7 7 7   7 7 7     4     4 4 4 4 4 4 4 4 4 7   4 4 g y y 4 4 4 4 n Q Q Q Q n Q Q n Q n n 7 4     7 4 4   4   4 4   4 4   4 4   4 4   4   4 4 4 y 4 4 y 4 4 ",
"7 g 7 g 7 4   7 7   4     4 4     4 4 7 4   7 7 4 4 4 y y y y 4 4 4 4 y P Q B Q A B Q y n n g n   4 4   4 4   4   4 7         4   7       4 4     4 4   7 7 4 4 ",
"g 7 g 7 g 3 7   7   4 4 4 4   4 4 4 4 7 4 4 4 4   4 4 g y y y y 4 y y y Q Q Q A Q Q Q Q n n n n 4 4 4 4   4 4 4 4 4               7   7 4   4 4 4 4 4 4 4 4 4 4 ",
"7 g 7 g 4 4 7   4   4     4   4   7 7   7   4 4 4 4 g g y P g P g P P P &.Q Q +.' P +.P @.+.P c y y y y y y y 4   4   7   7                     4 4 4 4 4 4   4 ",
"g 7 7 4 4 4 7 7     4 4   4 4 4 7   7   7 4 7   4 7 g g P P P P Q P P P ' Q ' ' Q Q P P Q g P P y y y n y y 3 n   4   7       7   4     4         4 4   4 4 7 7 ",
"4 y 4 4 4 4 4 7 g 4 4 7 4 4 4 4 7 4 4 4 7 7 4 4 4 4 4 y P P P P P P P P P Q ' P P B P P P P P P y Q n B y y n g 4       7 7     4   4   4   4 4 7 7 7     7 7 7 ",
"y y y 4 7 4 4 7 7 4 4 7 7 4 4 4 y 4   4 4 4 4 4 4 4 y g P P P P Q P P P P P P P P P P P P P P P A A Q y y 7 n n 4 4 4         7   4 4 4 4 4   4     7 7 7 7     ",
"y y 4 4 7 4 4 g 4 4 4 7 g 4 y 4 4 y g 7 y 4 y g W g P P +.Q Q +.+.P Q +.' P ' ' +.+.' Q Q Q ' Q B Q P P P g c c y 4 7 4 4 4 7 4   4 4     4   4 7 7   7 7   7 7 ",
"n g 4 4 7 4 4 7 7 4 4 4 7 4 4 y 4 y g g 4 4 g g @.g P P &.Q +.&.+.P ' P P Q ' ' +.+.&.' ' +.+.P P P P P P Q P P y g g 4 4 4   4 4   4 4   4 4 4 4 y 4 4 7 7   4 ",
"n n y y 7 g 7 4 7 4 4 4 4 4 y 4 y y y y y y y P P g y P P P Q ' Q P P P P P ' ' +.+.Q Q Q ' P P y P g P P P P Q g g g y 4 4 4 4 4 4 4 4 4 4 4 4 4 4   7 4 4   4 ",
"n n y y g 7 7 4 7 4   4 4 4 y g y y y B B B B y P Q P P ' Q P +.' +.P P +.Q +.' ' +.' +.' P P P P P P P y P P g g g g y 4 4 4 4 4 y 4 y 4 4 4 4 4 4 4 7 4 4 7 7 ",
"Q n y y 7 g 7 4 4 4 4 4 4 4 y @.' +.Q Q P P P P P P g Q @.Q ' @.&.Q P P +.+.+.' ' +.P P P P P P P P P g g P g P Q B B y P P B P y Q n Q y y y 4 7   4 4 4 4 4 4 ",
"Q n y y g 7 g 4 4 4 7 4 4 4 g &.+.+.&.+.+.Q P P g B B n P P P +.&.&.+.+.Q Q +.+.' ' P P P P P P P Q P Q P P Q P B y y g P Q ' Q Q _ +.Q B y 4 y 7 4 4 4 7 7   4 ",
"n n y g 4 4 4 4 y 4 y y y y P Q +.+.+.+.&.Q Q P g g g P P P ' Q ' +.+.Q +.&.' +.P P P P P P P P Q P P P P B P P y B y B P ' Q ' +.+.P ' P y y y 4 4           7 ",
"Q n y y 4 4 4 4 y 4 y g B y B +.e.5.&.+.' +.P g n g P P +.' Q B +.Q +.Q ' Q Q P P P P P P P P P P P P P P P P P B P P P P P P +.' +.+.P P B y y 4 4 4 7 7   7 7 ",
"Q y y 4 y g g y 4 4 P Q P P Q b.b.b.q.+.P P P P Q g P P P Q +.+.&.Q +.' P P P P B P P P P P P P B P P B P P P P Q Q P P P Q P P &.q.&.q.' Q +.Q g g 4 4 g 4 7   ",
"Q n y y g g y y 4 y Q &.&.+.3.B.b.b.q.Q P g P P n @.P Q +.' +.+.&.+.Q ' P B P P P P B P P P P P P y P P g P P P P P P @.P g P g q.q.b.b.q.&.q.3.+.B y 4 7 4 4   ",
"Q n g g g g y y y y B +.q.+.&.b.n.n.-.A y P P g Q g P +.' +.+.+.&.&.Q P P g P B P g P P P P P P g P y P y P P P P P ' Q P P y B %.q.Z.b.h.5.q.0.5.B B B y y 4 4 ",
"g g g g g g B y y y B Q &.q.5.B.-.3.+.A B y P P P P P P +.+.I +.+.Q ' P B P P P P P P P P P P y g B P P g B g P P Q &.P P y y P %.q.b.h.q.0.h.h.4.' B B y y 4 4 ",
"n g n g 4 g Q @.&.@.4.q.B.q.h.q.+.&.Q Q B Q P P Q P P Q ' P ' +.P +.P P P P P B P P P P B P P P P P y g P P P P P Q +.Q P P B P %.8.q.q.h.h.F.J.h.4.I 4.' y y y ",
"g n g g y g +.3.&.&.q.M.Z.h.5.q.P Q +.P g g P P &.P &.' +.+.' ' P P P P P P P P P P P P B P P B P y P B P P Q P P &.@.+.g y P P ' %.8.4.0.F.K.P.F.F.h.B.5.B 4 y ",
"W g g g 7 g @.m.&.&.q.b.Z.B.q.5.+.Q P g B y P P Q ' +.' +.' ' ' P Q P P P P P Q P y P y P y P g y P P g P P P P P P ' &.P P y P ' 8.8.8.k.D.K.K.K.h.B.Z.q.P B y ",
"c n n g g g Q 3.&.&.q.M.Z.q.h.q.P P B P Q P P P +.' P Q +.+.' P P g P P g P P g P P B P y P B P P g P P P g P P +.@.&.%.P P B y %.%.8.k.k.D.K.K.K.F.F.B.&.P g y ",
"g g g g g g P Q P P +.&.q.&.5.q.&.Q Q Q ' Q P P +.Q P P P P P P P g y P P P y P P y g P g P P P P g P g g P P %.P P @.' &.' ' q.8.b.8.k.k.D.D.J.h.7.4.4.%.P g y ",
"W g n g g g y B y y P Q &.+.' q.&.&.&.+.&.+.+.@.@.P P P P P y P P B P y g B P y P P y P P g P P P P @.P P @.@.%.P P P @.5.&.b.q.8.x.D.h.k.k.h.h.7.I B B P y g P ",
"y y y y g y 4 4 4 4 B +.Q +.Q &.3.&.&.+.Q Q ' +.+.P P P P y P g y P P g P B P P y P P B g Q g Q g g @.@.P @.%.P ' ' ' ' +.q.h.q.k.h.D.x.Z.q.h.h.5.I B y B y y g ",
"y y y y g y 4 4 4 g P @.+.+.&.3.3.3.+.&.+.+.Q P P P P P P P g P P y g P Q g g B g B y P P B P P P P P P P %.%.%.' ' &.' q.&.b.Z.F.F.J.J.J.h.q.Z.5.P y B y y g P ",
"y y y y 4 4 4 4 y y g g Q P Q 3.Q +.&.+.Q +.' &.' &.P P P g c c B g P P B g P P P g P g P P P P @.P @.P @.' &.P ' 4.+.+.q.q.h.M.B.F.J.J.Z.4.' &.P y y y y 4 g g ",
"y y y 4 4   4 4 4 y y 4 4 y B g P P P P P P P P Q ' Q ' Q P c P P P Q P Q +.Q P P P P P P Q Q P P P %.@.%.P %.&.&.q.q.&.q.5.5.q.0.4.q.q.' B y B y y y y g 4 y g ",
"y g g g 4 4 4   7 7   4   4 y n P P P P g P Q P +.+.P Q P Q P P Q P P Q +.@.' Q P ' P P Q @.' Q P Q ' +.+.+.&.5.b.5.q.q.q.q.q.q.q.q.q.b.+.y y B y y 4 y 4 y g g ",
"g g g g 4 7 4 4 4 4 4     4 3 n Q P P P g P Q &.Q P P P P Q ' Q P P P P P ' Q P Q Q @.Q ' ' Q P P @.+.@.+.q.5.&.q.q.B.q.b.q.q.q.q.q.M.1.&.g y y y y y 4 y 4 g g ",
"g n g n   7 4 4 4 4   4   4 4 4 y y y 4 g g g @.P g P Q Q +.' Q P P P P P P Q P P P P P Q ' Q P A +.P Q 5.+.' +.5.+.q.b.&.' +.q.q.%.%.' P y y B 4 y 4 y 4 y g g ",
"g g g g 4 4 4 4 4 4 4   4   4 4 4 4 4 4 y 4 g g P P P P g P B Q P g Q g P g g B g P P g P P P g A Q P P +.&.' +.+.+.&.q.' B B P g B P y P y y y y 4 y 4 y 4 g y ",
"g n 7 g 4 4 7 7 4 4   4     4   4   4 4   4 y y g @.P g P P B g g g Q B g Q B P B y P B P P B P ! ! P Q ' +.' 8.' &.1.&.P y y y 4 y y 4 y 4 y y 4 y 4 y 4 y y B ",
"g g n g 4 4   4   4 4   4 4 4   4 7 4   4 4 g y @.n P Q P y Q B P B g P P g P y P P P P P P P P A +.' Q +.5.' %.q.&.&.&.P y y B y 4 4 y 4 y 4 4 y 4 y 4 y 4 B y ",
"g g g g 4 7 4 4 4 4 4 4   4 4               4 4 n n n n P B Q Q g P Q B P P P P P P P P P P P P +.~ Q +.Q ' P %.%.%.' P P y y y 4 4 4 4 4 4 7 4 4 4 4 4 4 y y B ",
"n g n g 4   4 4 4 4   4 4 4 4       7 7     4 4 g n n 3 y y B y B B y P P @.P P B P P P P P P P A A A ' ' P P P P g y g y 4 y y 4 4 4 4 7 7 7 4 4 4 4 4 y 4 B y ",
"n g g g 7   4 4 4 4 4   4 4   4   7       7   4   4 4 y y y y y y B B Q P P Q ' P P P P P P &.P P y P P P P P P y y y 4 4 4 4 4   4   7   7   7 4 4 7   y 4 g B ",
"g g g g 7 4 4 4 7     4 4     4       7     4     4 4 4 y y y y B g g P &.Q Q &.P P P P P P ' Q P P P P ' @.P P B y 4 4 4 4 4   4 4 4       7 7 4 4 7 4 4 g B y ",
"g g g g 4 4 7 4 4 4   4   4 4   4     4 7 7 4 4 4 4 4   4 4 7 4 g g g Q @.n ' @.P P P P P P Q ' P P P P P Q P P y 4 y 4 4 4   4 4 4 4 4   7     4 4 4 4 y 4 g g ",
"g n g 7 4 4 7   4 4 4   4   4 4               4 4   4 4 4 4 4 3 g 7 g n g g P P P y P y P P P P y y g B g P y P g y 4 4 4 4       4   4       7 7   4 4 4 y g g ",
"g g g g 4 4 4 4 4 4 4   4   4 4   4 4   4   4 4     4     7     4 4 4 4 n n n n B y A A Q A g P y 4 y 4 y 4 y 4 4 4 4 4     3     4 4         4 4 4 4   7 4 g g ",
"g n 7 n 7 7 4 4 4 4   4   4 4   4     4 4 4     4 4 4 4       7     4 4 Q Q n Q Q Q Q A Q Q _ Q y 4 4 y 4 4 4 y 4 4 4 4   7 = = 4     4 4 4 4 4 4 4 4 4 7   g g ",
"g n g g 4     4 4     4 4     4 4 4 4 4 4 4   4 4 4     4       4     4 7 n n Q B n Q Q A Q P Q 4   4 4   4 4   4 4 4 4   7 =   4 4 4 4 4     4 4 4 4 4 4 4 g g ",
"g g g g 4 4 4 4 4 4 4   4 4   4 4 4 4 4 4 4 4   4 4             4 4 4 4 y 4 4 n y y y y B y y y y 4 4 4 4 4 4 4 4 4 4 3 7 = 3 3 4 4 y 4   4 4   4 4 7   4 4 g g ",
"y y 3 7 y 4 4     4     4   4 4 4 4   4   4   4   4   4 4   4 4 7   7 7 7   4 4   4 4 4 4 4 4 4 4 4 4 y 4 y 4 y 4 y 4 y 4 4 4 4 4     4 4   4 4 4 4 4   7 g y y ",
"y y n 3 4 4 4 4 4 4 4 4 4 4 4 4 4     4 4 4 4     4 4     4 4   7   7   7 7 4 4 7 4 7   4 4 4 4 4 4 y 4 y 4 y 4 4 4 y 4 y 4 4 4 4 4 4   4 4 4 4 4 7 4 4 y y y y ",
"n 3 7 3 4 4 4 4 4     4   4 4     4 4   4   4   4 4   4 4 4 4 4 7 7   7     7 4 4 4 7 4 4 4 4 4 4 4 4 4 7 7 4 4 4 4 4   4 4 4 4   4 4 4 7     4   7 4 4 4 y y y ",
"7 y y 3   4 4     4 4   4     4 4   4 4   4 4 4 4 4 4 4   4 4     7 7 7 7 7 7 4   4 4 4 7 7   4 4 4   7 4   4 4 4 4 4 4 4     4 4     4 7 4 4 4 4 4 4 4 y 4 y y ",
"y 4 4 4 4 4     7   4 4   4 4   4   4 4 4 4 4 4 4 7 4 4 4 4   4 4 4 4     4 4   7 7 4 4 4 4 4 4 4 4   4 4 7 g 7 4 4 4 4 4     4 4 4 4 4 4 4 4 4 4 4 4 7 4 y y y ",
"7 4 4 4 4 4 4         4 4 4   4 4 4 7   7   4 4 4 7   4 4 4 4 4 4 7 4 4 4 4 4 4 4 4 4 y 7   4 7 4 7 7 4 7 g 7 g   4 4 4 4 4 4 4 4   4 4 4 4 7   4 4   7 y 4 y y ",
"y 3 3 7   7   7   7   4 4 4   4 4 4 4 4 4 4 4 7 4 4 4 4   4 4     7 4 4 4 4 4 4 4 4   7 7 4 4 7 4 4 4 4 g 7 g 7 4 4 4 4 4 4 4   4   4 4 4 4 7 4 7 4 4 4 4 y y y ",
"3 y n 7 7 7   7 4 7     4   4 4 4   4 4 4 4   7 4 4 4 7 7 4 4 4 4 4 4 7   4 4 4 4 4 7 7 g 4 4     4 4 4 7 g 7 g 4 4   4 4   4 4 4 4 7 7   4 4 4 7   4 4 y 4 y y ",
"7 n 4 4 g n 7 7   7 4 4 4 4 4 4   4 4 4 7   4 4   7 4 4 4 7 4 4 4   4 4   4 4 4 4 4 4 4 4 4 4 4 7 7 g 7 7 g 7 4 4   4 4 4 4 4 4 4 4 4 4 4   7 4 4 4   7 y g y y ",
"y 3 4 4 7 g 7 7 7 + 4 4 4 4   4 7 4 4 4 7 4 4 4 4 7 4 4   7 4 4 4 4 4 4 4 4 4 4 4 4 4 4 4   4   g 7 7 g g 7 g 4 4 4 4 4   4 4   4     4 4 4 7 4 4 4 4 7 4 g y y ",
"g g g g g 7 g 7 4 4   4 y 4 4 y g g g g g g n g g g g g g g 7 g y 4 4 y 4 y y y 4 4 4 4 4 4 4 4 7 4 4 4 7 7 4 4   4   4 4 4 4 4 4 4 4 4 4 4   4 7   4 4 4 y y y ",
"@.n n g 7 g 7 g 7 7 7 4 g 4 y 4 g g g g g g g g g g g g g g g g y y y y y y y y 4 4 4 4   4 4 4 7 4 4 4 4 7 4 4 4 4 4 4 4 4   4 4   4 4 4 7 7 4 7 4 4 4 y y y y ",
"W W g W g g g 7 g 7 g g g n g g n y y y y y y y y y y y y y y y y y y y y y y y y y 4 4 4 4 4   7 4 4 4 4   4 4 4 4 4 4 4 4 4 4 4   4 4 4 4 4 4 4 4 4 4 4 7 y y ",
"W n c g g n 7 7 g g n g g g g g y y y y y y y y y y y y y y y y y y y y y y y y y y 4 4 4   4 4 7 4 4 4 7 7 7 4 4 4 4 4 4 4 4 4 4 4 7 4 4 4 4 7 4 4 4 4 g g y n ",
"@.P g c W c g W g g @.g g g g B y y y y y y y y y y y y y y y y y B y y y y y y y y 4   4 4 4 4 g g g 4 g g g g 4 y y y y y y y 4 4 4 7 7 4 4   4 4 4 g g g n n ",
"Q P g n g n c g g n g n n g Q g y y y y y y y y y y y y y y y y B y y y y y y y y 4 4 4 4 4 4 4 g g y y y g g g y y y y y y y y 4 y 7 g 7 4 4 4 7 7 7 7 g g n n "
};
