/* XPM */
static char *IMG_10591710913339[] = {
/* columns rows colors chars-per-pixel */
"80 80 213 2 ",
"   c #02040D",
".  c #040612",
"X  c #060815",
"o  c #080A17",
"O  c #050719",
"+  c #06091C",
"@  c #080A1E",
"#  c #050624",
"$  c #090625",
"%  c #070B24",
"&  c #090C25",
"*  c #070C28",
"=  c #0B0C29",
"-  c #070729",
";  c #110C2D",
":  c #0B1026",
">  c #0D112B",
",  c #061029",
"<  c #11142E",
"1  c #13182E",
"2  c #0E0E32",
"3  c #130F32",
"4  c #0F1333",
"5  c #141432",
"6  c #181737",
"7  c #161A33",
"8  c #191B36",
"9  c #1A163A",
"0  c #1C1B3B",
"q  c #15183B",
"w  c #211E3D",
"e  c #1F203E",
"r  c #22213E",
"t  c #1D1B40",
"y  c #231F41",
"u  c #1D2043",
"i  c #242443",
"p  c #292546",
"a  c #292947",
"s  c #242549",
"d  c #262A49",
"f  c #2C2B4B",
"g  c #272848",
"h  c #302E4E",
"j  c #2D314E",
"k  c #32314F",
"l  c #2E2E52",
"z  c #322E51",
"x  c #353354",
"c  c #383355",
"v  c #3A365A",
"b  c #3C3B5C",
"n  c #383757",
"m  c #2F3255",
"M  c #3C3C62",
"N  c #413D5E",
"B  c #433E61",
"V  c #3F405F",
"C  c #3E4166",
"Z  c #3F4168",
"A  c #43415F",
"S  c #444264",
"D  c #494465",
"F  c #46456B",
"G  c #4B466C",
"H  c #46496E",
"J  c #4D4B6D",
"K  c #4A4865",
"L  c #514C6D",
"P  c #504969",
"I  c #4F506E",
"U  c #54516A",
"Y  c #535167",
"T  c #434772",
"R  c #4B4771",
"E  c #464A73",
"W  c #4D4B72",
"Q  c #4C4F78",
"!  c #434E7B",
"~  c #524C72",
"^  c #584D75",
"/  c #4E5275",
"(  c #4D527B",
")  c #545274",
"_  c #595476",
"`  c #53557B",
"'  c #5A567A",
"]  c #54597F",
"[  c #59597A",
"{  c #4D5580",
"}  c #545A83",
"|  c #595D84",
" . c #555D88",
".. c #5B638C",
"X. c #58648C",
"o. c #5B6692",
"O. c #5D6A92",
"+. c #61658C",
"@. c #676889",
"#. c #7B798D",
"$. c #76768C",
"%. c #656A94",
"&. c #696D95",
"*. c #646D99",
"=. c #636691",
"-. c #6B739B",
";. c #697399",
":. c #75799A",
">. c #6D76A2",
",. c #6C7BA6",
"<. c #737BA4",
"1. c #717FA9",
"2. c #7A7FA7",
"3. c #807D90",
"4. c #6E85AC",
"5. c #6F86AA",
"6. c #7584AC",
"7. c #7986AD",
"8. c #748AAD",
"9. c #7D8AAF",
"0. c #7286A7",
"q. c #748AB4",
"w. c #7B8CB4",
"e. c #768CB8",
"r. c #7C8EB9",
"t. c #7687B1",
"y. c #7C91B5",
"u. c #7C92BA",
"i. c #7690B3",
"p. c #838093",
"a. c #818BB4",
"s. c #828EB9",
"d. c #8493BB",
"f. c #8A9DBD",
"g. c #8595BA",
"h. c #8589AF",
"j. c #8C9DC1",
"k. c #859EC0",
"l. c #929FC1",
"z. c #8CA3C8",
"x. c #92A4C5",
"c. c #9CAECC",
"v. c #94A6CA",
"b. c #9CAED2",
"n. c #9BB4D3",
"m. c #A9B3CF",
"M. c #A2B5D4",
"N. c #ACBCD5",
"B. c #A6B3D9",
"V. c #ABBADC",
"C. c #A8B7D7",
"Z. c #B3BDDE",
"A. c #B4B6CF",
"S. c #B2BDE2",
"D. c #A9BDE0",
"F. c #B9C3CE",
"G. c #AEC1DF",
"H. c #B7C4D4",
"J. c #BBC4D4",
"K. c #B5C4DD",
"L. c #BAC6DA",
"P. c #BBC9DC",
"I. c #BBC8D8",
"U. c #AEC2E3",
"Y. c #B5C4E3",
"T. c #B9C6E3",
"R. c #B5C9E6",
"E. c #BBCAE4",
"W. c #BCCCEB",
"Q. c #B7CBEB",
"!. c #BCCCF0",
"~. c #C3CCDB",
"^. c #C3C9DB",
"/. c #C9D1DC",
"(. c #E3E4DE",
"). c #C3CDEC",
"_. c #C4CEE2",
"`. c #C5D2E4",
"'. c #CDD5E3",
"]. c #CED9E3",
"[. c #C9D6EC",
"{. c #D3DAE3",
"}. c #DADDE4",
"|. c #D3DCED",
" X c #DDDBEB",
".X c #D1D5E6",
"XX c #C1CEF0",
"oX c #C6D5F3",
"OX c #DEE2E7",
"+X c #DDE4EC",
"@X c #D6E1EB",
"#X c #DCE7F5",
"$X c #E5E5E4",
"%X c #E6E9E7",
"&X c #E9E8E5",
"*X c #E2E6EB",
"=X c #E9E7EC",
"-X c #E6EAEB",
";X c #EAEBEA",
":X c #EBE7E6",
">X c #EEF3EE",
",X c #F2F4EE",
"<X c #E4EBF2",
"1X c #E6E8F5",
"2X c #EEF4F2",
"3X c #EFF8F5",
"4X c #EDF4FB",
"5X c #F1F6F2",
"6X c #F3F9F4",
"7X c #F3F4FC",
"8X c #F4FAFC",
"9X c #FAFAFE",
"0X c #F8F7FD",
/* pixels */
"= = $ = % % , 1 e : 7 1 * * : * & & & % & : : @ % @ % % % % % % , , = * * % & & & @ & @ & @ O O o X X . . . . . .   . . .   . .                                 ",
"= $ * & % % , e 1 1 7 1 * % % * * % & & : % & % % : % : % * : % = & * & & & : @ & @ & @ @ @ @ O O X . X . .   . . .   .   . .                                   ",
"& = * % % @ & 1 1 e > 1 8 1 : & : % & & % & & & % & % : * & & & * * & & & % & & & & & & @ @ @ X O O O . . . . .       .   .   .                                 ",
"$ & & & % % * , , % > 7 > 1 7 : * & & & % % : * : & % % & & & & & & & * & & : @ = & @ @ @ & @ @ O . O . . . .           . . .                                   ",
"& & : % : % & & & & 1 8 % 1 1 : & % & & & & * * * * & = & & & & % : : @ % % : % & * % % % @ @ @ O X . . O . . .                                                 ",
"& & % % % % & & $ = < 1 8 7 1 1 < > & % & % % = & & * & & & & & % % % % : % % & & * & % % @ @ @ @ O O . . . .   .                                               ",
"& & * % % % & & $ = & < 7 1 : e 1 1 > % & & % : * * & & & & : : : % : % : % & & & & * & & @ @ @ O X X X . . . . . . .                                           ",
"& * % : : : & = < < e r 1 : 7 : & 7 1 % & , % * & & & * & & % % : % % % @ & & % * & & & @ & @ @ @ @ O X X . . . .                                               ",
"% % % % * * = = v L J I n = 7 > , 7 > > : % % * % , % % : % % & % % % & % % % * & & * & @ : @ @ % X O X X . . . . .                                             ",
"% % : % & $ = = A J I J V & 5 8 e > 1 8 e , * : % % % % @ @ : % % : % & % % : : * & * = & % % @ @ @ @ O O X . . . . .                                           ",
": , & * & * & = n U H I V $ = > = 5 e > 1 7 : % : @ % % % % : * = = & & % : & @ & * * & : % % @ + @ + O O X X . .   .   .                                       ",
"& * & * & & > , S _ W _ A - - - > 5 5 # , 1 & > % : : % % % % $ $ $ & $ $ = & * & & & * % % % % + % % + + O O X . . . . . . . X                                 ",
"= = & & : @ : % i f f l f l f v B c c c b f 1 < % % % % = & > f j f z 0 $ & % & * & & & * & & : % @ @ @ @ O X O . . . . . . .                                   ",
"& & & % % % % % $ # $ # 9 ) W ) _ ^ ) [ _ K r = % % * : = $ 5 L ) ) [ f $ = % * % & % & % & % & % % % @ @ @ + O X X . . .   . . o                               ",
"& & & % % % & $ = = = = 0 ~ W J W B G J K K 0 8 = < > & $ $ 5 K J J ~ f $ , & & : % : & : & & & & & & @ @ O X O X X X . . . .                                   ",
"= & % : @ % : & % = = $ y ~ J ~ W ~ L J ) J ; 7 8 7 > & = = 5 J ~ J ) f $ * & & % @ % * % % * & & & & & % @ % @ @ X X X X . . . o   o                           ",
"& = & & : % : @ % : & = 0 ~ W ~ R P ^ G ^ L w w 7 < = * = $ 7 S G K J a & & & & : @ & & % * & : & & & & % % @ O @ O O X X O X . . X . .   .         . .   . . . ",
"$ & & & * % % % @ & & $ t ) W W ^ ^ R R ^ ^ G D F J i # * = $ 1 < ; 5 = $ & & & % & & % & : = $ & & & & % % % & @ @ @ + O X X X . . . .   .     .   . . . . .   ",
"= & & & % % % % & : = $ 0 L R ~ B R ^ ^ P G L L ~ ~ s - > , & % $ * % & = * : & % % : * & * & & % & & $ % @ & @ @ @ @ O O X X X X X X . . . . .       . .   .   ",
"& & & & % % : % & & & & 9 / L ~ ^ W W R ^ ^ R W ~ W s - * * % , * , & & & % & & % : , * & = = : & & * & : % @ : % @ O @ @ O O X X X . . . .   . .   . . . .   . ",
"* & & & : : % % & & & % 8 ) ) W ^ ` R R R R B ^ F E s # $ % # $ % : & & : & & : % = % # * * & & & % % & : % % @ @ % @ @ @ + + O O X O X X . . . .     . . . X   ",
": & % % % % % : & % & = 7 k j j l B R ^ ^ R =.*.+.%.F s f a i = * $ & $ = & $ ; i d d f 8 $ & = & & & & : % % : % @ % @ @ @ @ @ X O X O X . . . . . . . .     X ",
"% % & & * = * & % % % % $ * + - # v ~ R B  .a.r.r.s.=.W ) _ L ; = & = & & @ & 5 J ) / ` x - $ & * % & & % % : % : % % @ @ % + + + O O X . X X . . . . . . . . X ",
": @ * & * & * & * : & % * = = = - M ^ R ^ } 2.w.q.r...R R ~ B 3 = & & : % * = > S J J L h $ = & & & & * % & @ % : % % % @ @ @ # + @ + O O O . X . . .   . . X X ",
"% % % : * & & * * & & * * & & & # N L J E ] w.8.q.r.o.T Q ^ B 3 - * * * * * $ 4 F ~ W ~ z # = & * * * & & % & % % @ : @ % & @ @ @ @ + + O O O X . . . . . X . . ",
"% : % % & & * : & & & & % * & : $ c J J Z ( 7.w.w.w.o.E E / R 2 2 > = > > > = 5 D ~ G J c $ < ; > = & & & % % & % : % & @ & & & @ @ @ + @ @ @ O O O X . . . . . ",
"@ % & & & * : % : % % & $ : $ $ $ < < 5 4 s ( ` { { *.t.6.<.>.T S F S S G B S B 9 3 9 3 f G N D A 7 $ & & = & % % % & % $ & & @ @ @ @ @ @ + + O O O X O X O X O ",
"% : & % & % * % * & * & & : , & & % $ = # 3 J ~ R T -.r.w.r.6.` W ~ W ~ ^ ^ ~ J 3 # = # p _ L L J 5 = & = * * : : % % : & & & & & @ @ @ @ @ $ + @ @ O O O O X X ",
": % % % % % % : % & % & & $ = & = = % , = 8 L L R W &.w.8.w.1.! R ^ R R R ^ R R 5 2 = - f L L E J 5 = = = $ * & * & % & & & % % @ & & $ & @ @ @ O O @ O O O @ X ",
"% % @ % % % % % & & & % & $ * $ $ $ % * % 8 L ~ ^ ( -.g.r.r.t.Q E R R T R R ^ B = # = # a _ ~ ^ J 5 # - % * * * & & & & * & & & & @ @ & & & @ & & @ @ @ @ O @ X ",
"@ @ % % % : % : % % : % > g i u a 1 * * $ 5 k c x l ] >.&.-.-. .o.o.....o...o. .d i i i h z z v c p i i i e * & & % & * : % : % @ & & @ @ $ @ @ & @ @ @ @ @ @ @ ",
"@ @ @ % % % % % % : % % 0 ) U ) ) i # , & & % + - # l E E F ( w.s.s.r.r.r.r.s.7.` W ) [ h # - - = S _ J ) n $ , & & & & @ @ : % & & & & & @ & & @ @ @ % & @ @ @ ",
"+ @ @ % @ @ @ % & & = & 8 J J J J r $ = % : % % = - z ^ Q R } t.r.q.q.e.q.1.e.1./ G ) _ j - > - = F W H ~ v $ * * = > & @ @ & & * & & & & & & @ @ @ & & @ & @ @ ",
"+ @ @ @ @ @ @ % & & & % 0 ) J J U w & & % % % @ % $ c ~ ~ R ( w.q.e.e.q.e.q.r.1.Q W ) ) n - % * 2 C Q ~ ( c $ * = * & & & & @ = & * * & & @ & @ & @ @ & & @ $ @ ",
"O X @ X @ @ + % @ : = $ 0 J J J / r & & : : : % % % c ^ ~ R ( t.e.e.q.e.e.q.w.t.} ` ` [ M = 4 - 2 S W W ~ n = = = > $ & & & = * % : * % : % & & & & & @ & & @ $ ",
"@ @ @ X X @ + + @ % : $ = 9 6 5 8 , = = & @ % % * % N ^ B R } 7.q.q.q.z.D.D.S.B.6.<.7.a.@.S J S S -.2.<.2.+.b S V V 7 - % % , * % % & : & @ @ & @ @ & & @ & & @ ",
"X O X O O O O O O % & & $ $ $ - % % & & = : & * * $ c ) ^ R ` 7.e.e.4.n.oXQ.W.Y.i.e.d.d.=.H _ ' Q 1.r.w.s.-.E ~ ) ) 6 + & & & & % & : % % & % % & & & & @ & & & ",
"X X X X O . O O + @ & & > , > > & > & & & & = > = $ c ~ R G Q 7.q.e.4.b.!.Y.T.U.u.u.e.u.&.F ' ) Q 1.w.q.r.-.E W J W 9 - = & & = @ : % @ & & & * & & @ & @ & @ & ",
". X . X X . . O O + @ @ , : % % & % % & > $ $ # - - c ' ~ ( ] 9.r.r.q.b.oXW.W.R.i.i.4.r.;.H ~ G ` <.q.4.q.*.T R W H q # $ @ & & & & & & & * : % & & & % & & @ @ ",
"X . X . . . O X O O O @ % % % % & $ & % $ = i i i y z v c c M -.>.>.-.g.C.M.n.n.z.g.z.z.9.:.:.2.:.l.x.k.z.7. ...X...l u i w w & & % : % & & % % $ & & % & @ @ & ",
". . . . . . . . O O O @ + % % % = & % , * 7 W ~ L [ i # ; - = R T E T O.w.t.4.q.U.Q.Q.Q.R.W.).).T.T.W.Y.!.B.w.y.a.a.} W ~ ^ n @ & & & & = & % % & & & & & @ @ & ",
". . . .   . . . . O O O + + % % & & * % % 7 L J J ~ s $ - $ 6 J W W E *.r.e.e.u.U.R.E.P.K.T.S.T.K.E.T.K.W.b.5.q.w.w.} W W ^ n & $ > & = * * % * & & & & & & & @ ",
"X . . .   . X . . . . O O @ @ @ & & = : * 7 L J W L i - = $ 3 J J ~ F &.a.t.q.w.Y.E.P.P.E.P.P.P.P.P.H.K.).b.8.q.8.w.} R ~ ~ n @ = $ $ & , = * : % * & & & @ & & ",
". . . . o . . . . . O . O O + @ & & & & % 9 J U J ) i # 2 $ 5 L ~ ~ R &.s.w.e.y.T.Q.P.K.K.P.J.J.F.H.J.I.P.m.8.0.8.7.{ E E ~ b $ = = > $ $ & % % % % & & & & @ & ",
". . .   . . . . . . . . . . O @ @ % : : % = 8 0 0 6 l B N B v 9 9 9 9 M | } } X.V.E.T.P.`.@X@X}.{.}.OX}.|.`.Z.V.V.V.8.,.<.6.+.M b b C 9 $ , % % : % % : & & & & ",
"    o o   . .     . . . O X O O @ + @ % = $ % $ # # c ' L ~ G = $ - # f W R H ( Z.Q.E.I.].<X-X=X$X=X;X%X<X|.L.E.W.Q.f.q.e.u.<.E ~ ~ ) r $ > , % % % % % * & & & ",
".   . o . .     . . . . . . O O O + O O & = * * > - x ~ P L D 2 , > - j ^ ~ J ` Z.E.E.I.].<X%X%X$X$X$XOX*X|.J.P.T.Y.u.i.q.e.>.R ~ J L e = = % % @ : % % & & = & ",
". X   o o o .     . . . . . . . X O @ @ @ & * * $ # n ^ ^ ^ G 2 $ $ # f L W G / Z.E.E.I.{.-X%X%X=X$X$X:X*X{.I.A.K.K.u.4.4.q.>.T E H J 9 - $ % @ % % % : * * & = ",
"X X . X . . o . . . .   .   . . . O O + X @ % % % $ d V b b n y t 0 t M ..X.| ..Y.E.P.I.].;X=X:X$X:X:X$X;XOX/.~.~._.x.f.f.f.7.X. . .| f 0 0 w w @ $ & : & & & & ",
"  . X . . .   . .   . . . . . . . . O O @ X @ @ : : * $ $ - 5 J ~ ~ R &.a.r.7.s.Y.E.E.K.].<X&X$X$X,X5X5X5X5XOX*X#X1XE.T.W.W.C.8.w.w.a.X.~ ~ ^ A $ & % % & & & * ",
". . . . .   . X . .       . . . . . . . O O @ % @ & > & = = 5 P L ~ R *.s.q.q.w.R.E.E.I.].-X=X=X=X,X5X,X5X;X$X%X%X+X~.P.E.P.n.0.w.w.a.} R L ~ N $ & : * & & & & ",
". . . . . . . . . . . . . . .   . . . . X O @ @ @ & & & $ $ < L L J T %.r.q.q.u.Y.T.P.L.].1X=X%X$X2X5X5X6X>X$X(.%X*X/.E.P.E.M.8.8.7.w.| Q W ~ N = & % % & & & : ",
".     . . . . . o . . . . . .     . . . X X O @ @ $ + = $ $ 1 L L ~ W &.d.w.w.u.Q.!.W.P.[.4X1X*X*X7X7X6X5X;X(.(.$X%X~.H.K.E.N.i.q.7.w.] E W ~ B ; $ * * & @ & & ",
"    .   .   . . .   o . .     . . . . . . X O O @ O + % @ * = 0 w w t M X.X. .X.g.j.f.f.m.'._././.*X-X=X;X;X,X,X;X-X$X+X#X#X[.m.C.B.B...J W ~ B $ = = & % : & & ",
".   X .   . . .   . . .   . . .   . . . . . X O X @ + + & & @ & # - # d W H T Q 1.q.4.5.v.E.P.I.^.*X-X%X:X;X6X5X6X>X3X3X8X4X#XP.E.T.).&.F Q ~ b = = & & % % & & ",
"X       .   .   . . . X . . . . . . . . . . X X O O @ @ O @ % & = * $ l ~ ~ R Q q.r.q.4.v.W.E.E.I.+X-X%X&X&X6X6X3X>X>X>X>X6X<XH.P.P.).@.F ~ ) N = $ & & : % : & ",
".     .   . .     . . .   . . . . .     . . . . X X X X @ @ @ % * , + j _ ~ W ` q.r.r.e.v.XXT.E.P.#X*X%X-X>X3X3X5X6X>X,X,X6XOXF.^.J.^.&.G J ) b = : % % : % % % ",
". . . . .   . .   . . . . . . o .   . . . . . . . O + O + @ X % & = % p A N B F >.1.1.,.j.S.V.N.N.|.+X XOX%X6X3X3X,X5X,X,X5X%X/./.J.[.$.K L L b = , % @ % % : * ",
".   .     . .   . . . . . . . o . . .     .   . . . X O O X X @ @ @ & = = = - 4 T W Q E o.r.q.8.9.Z.P.^.J..X8X2X6X5X,X,X3X2X2X2X4X4X0X3.G _ _ b = = % : @ % * % ",
". .   . .     . .   . . .   .   . . . . . . . . X . X O O @ @ @ @ @ @ @ $ = - 4 D W ~ F o.r.q.q.8.G.T._.K.].8X2X6X,X6X,X3X>X>X2X2X7X7X#.P _ _ N = $ % % % % * * ",
"  .   . .   .     .   . .   .   . . . . . . . . . . . . O O O @ @ @ O @ & = & 2 G L W F X.w.q.e.w.G.T.E.T.|.8X2X2X6X3X3X3X3X>X>X5X=X7X3.P L [ S = = $ : : @ : * ",
". . . .   .   . .   . . . o . .   .   . .   . . . . . . . X O X X @ O @ @ & = > L L ^ P %.s.r.r.u.U.W.Q.R.|.8X8X8X8X6X3X>X3X6X5X,X,X9X3.A ~ ' K 6 = & % & @ & = ",
". .   . .   .     .   .   . .   . . . . . . .   . . . . . O X O @ @ O O @ @ % , i i p y C +...o.o.g.x.x.f.C.|.].{.{.>X3X6X,X,X,X,X5X0X#.L _ ~ S 6 < & : & & & & ",
". . . . . .   .   . .   . .   . . o . X X . . . . . . . X X X O O O @ & O @ @ * + $ $ + g W F E ! 5.8.8.0.f.E.H.I.F.<X6X6X6X,X,X,X,X7X#.D L ~ J 9 = & = & @ = & ",
". . .   .   . .   .     .   .   . . . . o .   . .   . o . . o X X O O @ @ @ @ @ % % : % f ~ J Q ( 0.r.t.q.v.R.E.L.J.<X4X3X5X,X,X,X5X0X#.N L [ D 5 6 8 1 @ & * & ",
". . . . . .   . .   . . . . .   . . . X o . o . o     . . . . . X O X O O + + @ % % % # f _ ~ ~ Q 6.s.s.t.x.oXE._.~.4X9X9X9X9X9X9X0X9X3.D L [ F 8 5 < : @ : & & ",
". . . .   . . .   .   . . . . . . . . . . o . o o o   . . . . . . . X X O O @ @ + @ % & i S D D F >.<.<.<.g.V.C.m.A..X X X X X X}. X X@.b J J S < = : % @ : & * ",
". . . . . . .   . . .     .   . .   . . . o . . o     . . . . X . . . O O @ @ @ & @ @ # $ 2 ; = 2 F ` Q ( E Q W L L ^ ^ L Y L Y Y Y Y w $ = 5 = & % % : & & * & ",
". . . . . . . . . .   . . . . . . . . . . X . o X X X X . . . . . . O X O O O @ + + @ & & $ $ = ; B ~ H R ~ R Q J W G P L L J J J J Y 8 % & & = & * & & & % % * ",
". . . . .   .   .   . . .   .   .   .   . X o o o X X X X . . . . . X X O X + O + + & @ @ $ = $ ; G ~ W ~ R ~ R ~ ~ L L L ~ J J L J J 0 $ & & @ & & & * * & & : ",
". X   . . . . . . . . .   . . .   .   . . o . o o X X X . . . . X . . X X X O @ @ O & @ & $ = $ ; B ~ ~ ) Q ^ ^ ) ~ ) L ~ ~ / ) ) ~ _ 0 @ : & @ * & = & & , & % ",
"X . . . . . .   .   .   . .   . . . . . . o . . o . X X . . . . . . . X X X O O O O @ @ @ @ @ & ; r f p p f f s p p f a a a d d f d f < & & & & * & & * & & & % ",
". o . . . X . . . . . . . .   .   .   . .   . . X o X X X @ o   . . . . o X O O @ X X % @ @ % % & & & $ - # $ $ % # # # # # # % - $ $ * & & * & & & % % % & & & ",
"X . . X . . . . . . . . . . . . . . . . . . . . . . X X X . X o . . X X X X O O + O @ X @ @ @ % $ = & $ & & & = & & & = : % % % $ & = = * & & % * & % % % : % & ",
"X . X . . . . . . X . . . . . . . . . . . . . . . . X o o o o o o X X X o X X O O O @ @ @ @ % @ @ % & : & & & & & & = & & = & & & : * & * * = & % % : % % % & & ",
". X . X X . . . . . . . . O . X .   . . . . . . . X X X X o o o o X . X . X O O O O X O @ @ @ @ % @ & & & & & & & & & = * & & & & @ % * : * * * % % : % : % & % ",
"X X X X O . . O . . . . . . . . . . . . . . . . . X X . . X X X o o o o O X O O O + X @ + @ $ @ % % % : & @ : % = & & : & = = = & @ * & & * & & : % % : @ % & & ",
"O X . O X . . . . X . O . . . . . . . . X . . X . . . . . . X o o o o o O O O @ @ X O + @ + @ % % % % % & & : % & & % : & & & & & : & & & & * & : % % : : % * & ",
"X X X O O . . O X O . . . . X X . . X . X . . . . . . X .   X @ o o % @ X @ X @ X @ @ X + @ @ & % % % : & : % % & : % % * : % & & * * * * * & & % * % & % % : & ",
"O X X O O . O X X . . . X . X . X X . X . X X . X X . . . o o o o o o X O O X O @ @ X @ + + @ # % % % % @ % @ % & @ & % & % % & = * & & & & & * % : & % % & % % "
};
