/* XPM */
static char *IMG_10551710913604[] = {
/* columns rows colors chars-per-pixel */
"80 80 104 2 ",
"   c #010615",
".  c #020915",
"X  c #00041A",
"o  c #030C1D",
"O  c #090F1E",
"+  c #0A111C",
"@  c #040E24",
"#  c #090F23",
"$  c #040F29",
"%  c #080F2A",
"&  c #041026",
"*  c #0A1224",
"=  c #041028",
"-  c #0B132A",
";  c #121623",
":  c #141B26",
">  c #101629",
",  c #141C2A",
"<  c #1A1E2D",
"1  c #161D30",
"2  c #17202F",
"3  c #1C222D",
"4  c #1C2333",
"5  c #1F2839",
"6  c #212530",
"7  c #252B34",
"8  c #2B2E36",
"9  c #202739",
"0  c #252C3A",
"q  c #282D3C",
"w  c #2D313B",
"e  c #363636",
"r  c #363837",
"t  c #393937",
"y  c #34353A",
"u  c #393738",
"i  c #34393D",
"p  c #3B3B3B",
"a  c #403F3D",
"s  c #3E403F",
"d  c #41413F",
"f  c #2C3341",
"g  c #343A45",
"h  c #3A3E43",
"j  c #373E4A",
"k  c #393F4C",
"l  c #413F40",
"z  c #3E4244",
"x  c #374049",
"c  c #3C424B",
"v  c #3C4352",
"b  c #444444",
"n  c #484647",
"m  c #464847",
"M  c #494947",
"N  c #44464A",
"B  c #49474A",
"V  c #454A4D",
"C  c #4B4B4C",
"Z  c #504F4D",
"A  c #4E504E",
"S  c #52524F",
"D  c #424650",
"F  c #454A53",
"G  c #4B4D52",
"H  c #464D58",
"J  c #4B4D59",
"K  c #4E5153",
"L  c #4D535A",
"P  c #545454",
"I  c #545857",
"U  c #585856",
"Y  c #54555A",
"T  c #595759",
"R  c #54595C",
"E  c #5B5B5B",
"W  c #605F5D",
"Q  c #61605E",
"!  c #4D5462",
"~  c #525661",
"^  c #555A62",
"/  c #595D63",
"(  c #5B5F6A",
")  c #605F64",
"_  c #5F6163",
"`  c #636363",
"'  c #686667",
"]  c #676966",
"[  c #6A6967",
"{  c #62676B",
"}  c #67696E",
"|  c #6B6A6B",
" . c #72716F",
".. c #706F73",
"X. c #6F7170",
"o. c #747474",
"O. c #7A7977",
"+. c #797679",
"@. c #7B7B7B",
"#. c #81807C",
"$. c #7F7D81",
"%. c #807E81",
"&. c #7D8184",
"*. c #808081",
/* pixels */
"= = = = & = = = = & = = = & $ = $ = = = = = = = & = = = = = = = = = = = = = & = # = = = = = = = = = = = = = = = = $ & = = = = = = = = = = $ $ & = = = = = = = = ",
"= = = = = = $ = = = = = = = = = = = = & = = = = $ = & = = # = = = = & = = $ = = & = = = = = = = = = $ = = = & = = = $ = = = $ & = = & = = = = = = = $ & = = & $ ",
"= = = = = = = = = = = = $ = = = = & = $ = & = = & = = = = = = = = = = = # = = = = = & $ = $ = = = = & = = = = = & = = = = & = = = = = = & = = = = = = = = = = = ",
"= $ = = = $ & = = = $ & = = = & = = = & = $ = = = = $ = = = = = = $ = = = = = = = = = = = = = = = = = = $ = = = = = = = = = = = $ = = = = = = = = & = = & $ = = ",
"= = = = = = = = = = = = = = = = = = = = = = = = = = = & $ = = = & = = = = = = = = = = = & = = = & $ = = = = = = = = = = = & = = = = = = = = & = = = & $ = = = = ",
"= = = $ = & = = = = = = & = = = = = = = = = = = = = = = = = & $ = = $ = = = = = = = = = $ = = = = = & $ = = = = $ = = = = $ = = = # = = = = = = & $ = = = = = & ",
"= = = = = = $ = = = & # = = = = = = $ = = = = = = $ & = = = = = = = = & = = = = = & = & = = = = = & = = = = # = = = = = # = = = = = = = $ & = = = = = = = $ = = ",
"= = = = = = & = = = = = = = & $ = = = = = = = = = = = = = & = = = = = = = = $ = $ = = = = = & $ = = = = = = = = = = = = = = = = = = = = = = $ & = = = = & = = = ",
"= = & = = = $ = $ = = = $ = = = & = = = = = = = = = = = = = = = = $ & = & = = = = = & $ = = = = = = = $ & = = $ = = = = = = $ & = $ = = = = = = = = = = = = = = ",
"$ = = = = = & = = = = = & = = = = = = = = = = = = = = = = = = = = = = = $ = = = = = = = = & = = = = = = * = = & & = = = = = = = = = = & = = = = & = = = = = = = ",
"= & = = = = = = = = = = = = = & = = = = = = = = = - = = = = = = = $ = = = = & = $ = = = = = = & = & = = $ $ = = = = $ = = $ = = = & = = = $ & = = = = = = = = = ",
"= = = $ & = = = = = = = = = = $ = = = = & = = = = = = = = = = = = & = = = = = = = = & = = $ = = = = = = = = = = = = = & = & = = = = = = = = = = = = = = = = = = ",
"= = = = $ = = = = = = = & = = $ = = = & & = = = = = = = = = = = = = = = = = = = = & = = = = = = = = & = $ & = = = = = $ = & = = = = = $ = = = $ = = = = = = = = ",
"= = # = = = & = = = = = = = & = = = = = = = = = = = = = = = = = & = = = = = $ = = = = = = = = = $ = = = = = = = & = = & = = = = = = = = = = & = = = = & = = = = ",
"= = = = & = = = = = = = = = = = = = = = = = = = = = = = = = $ = = = $ = & = = & = = = # = = $ = & $ = = = = & = = = = = = = = $ = = # = = = = = = = = = = = = = ",
"= = = = = = = = = $ # = = = = = & = = = = = = = = = = = = = = $ = = = & $ = = = = = = = = = = = = = = = = = = = = $ = = = = = & = = = = = = = & = = = = = = = & ",
"= = = = = & = = = = = = = = = = & # = = & = = = = = = $ $ $ $ $ = = = = & & = = = = = = $ = = = = & & & = = = = & & = = = = = = = = = = $ $ $ $ = $ = = = = & = ",
"= = = & $ = = = = = & $ = = = = & = = = = $ = = = = = = $ $ $ $ = = = = & & = = = = = = = = = = = & = = = = = - = = = = = = = = = = = = $ $ $ $ = = $ - = = & & ",
"$ = = = & $ = = = = $ = & $ = & = = = = $ = = = = = = = $ = = $ $ $ = & & = = = = = = = = = = = $ = = = = = $ $ = = = = = & = = = = = = $ = = = = = $ = = = & = ",
"= = = = = = = = = = & = = = = = = = $ & $ = = = = = = = $ $ = = $ $ = & & & = & = = = @ = = = = $ = = = = $ $ $ = = $ $ = = = = & = = = $ = = = = = = $ = = & = ",
"= = = = = = = & = = & = = = = = $ $ = = = = = = & & & & & & & = = $ $ $ = @ @ & @ & = = = $ = & = = = = = = $ $ $ = = = = & & & & & & & = - = = = = = = = = = = ",
"= = = = = = = $ = = = = = = = = $ $ $ = = = = = & & & & & & & & = = $ $ = 1 , ; , > o $ $ $ $ = = = = = = = = = $ = = = = = & = & & & & = = = = = = = = = = = = ",
"= & $ & = = = = $ = = = = $ = & $ $ = = = = = $ = = = = = = = = = = $ = 4 L L L R x # # % - = @ = = = = = = $ = = = = & = = = = - & - = = = $ $ = - = & = = = = ",
"= $ = = = & = = & = = = = & $ = $ $ = = = = $ $ & = = & - = = = = & = o , ~ Y I R h . o o o $ % = = = = = = = = @ & o o @ = = = = = & = = = $ $ = = = & = = = = ",
"= = & = $ = = = = = = = = = & = $ $ = = & & = - & = = = - $ = = - @ w c c K Y I P G l k h v 9 @ = @ = = $ = = o 0 v x x v 1 = = = & = = = = $ $ = = & & = = = = ",
"= = $ = = = & = = = & $ = = = = $ $ = = & & = - = = $ $ = = = @ @   g / R P P P K T Y T R ( g o @ - = $ $ = # . g _ I I ( 4 X $ & = = = = = $ $ = = & & = = = = ",
"= = = = & = = = = = = = = = = = - = = = = = = = $ $ $ $ $ = * * 3 3 z R S S P T T Y P P P K g < 4 = $ $ $ - 4 2 z I A I Y 8 < < & = = = % $ $ $ = = & & = = = = ",
"= = & = = = = $ & = = = = $ = = $ = = = = = = = $ $ $ $ = & # * L R T K P U K P P P P P b b G ^ ~ - # = @ > ! Y I A S U P Y / k o & = & $ $ $ $ = = & & & = = = ",
"= = $ = = = = & $ = = = = = = = $ $ = = = = = = - $ = = = * & ; P P P I P P P S P P P P b b M I J * # o o ; L Y P U P S P P Y x . > O & $ = = = = = & & = = $ $ ",
"$ = & = = = = = = = = & = = = = $ - = $ = = = = $ $ = - o 0 F F ` / | o.[ P S U P P P Y n b b n G N N D c N Y P '  . . .o.E P K v v , o = = = = = = & & = = % $ ",
"& = = = * = = = = = = $ = # = = $ $ $ $ = = = = $ = $ =   w ^ Y / ` o.*.o.S S P P I P T n n b b b U R P T I P Z | $.%.$.&.Q A I R ^ 2 o - = = = & = & & = = = = ",
"= = = = $ $ = = = & = = = = = = $ - - $ = = = = $ $ - 5 4 V { _ | | o.@.o.U E P K P P T b B b n b P S P P P ) W  .$.+.| | E P K K ! : o - = = = = = = = = = % = ",
"= = = = = = = = & = = = = & & = = & $ = $ @ $ $ $ # # ~ Y } &.@.$.@.@.@.o.` ` U P P P P b b M b b S P U S U @.@.@.@.o.K K P P P Y L : & & & = = = = = = $ = = = ",
"= = = = = = = = = = = = = = = @ & - = @ = * # * # O ; F L | @.+.@.@.@.@.o.` ` E P P P P n b n b n S P S P E +.@.@.@...P T P P P L R , o & & = = & & = = $ = = = ",
"= = = = = = = = = $ = = = = - # O x L F F H F J G G C T I E ` ' @.+.@.@.@.O.O.E P P P P n b b b b b b Z P S U U E T E P S P P P L R : o - = = = = = = = = = = = ",
"= = = = = = = $ = = - = = = @ @ . x / Y Y R Y P P P P P P E ` [ @.@.@.@.@.@.#._ P P P P M b b b b b b C E P S P P P P T P P P P R ^ 2 o = = = = = = = = = = = = ",
"= = - = = = $ $ = $ = $ @ % ; f y C Y T E E T P P P S S P T U W @.@.o.o.| ] ] E P P C C n b b b b b b m C C C C C C C C K Z G N i f - & $ - - = = = $ = = = = = ",
"= = = = = = $ $ = $ = = @ o < ^ Y P K T ` ` P P P P P P P P P T O.@.| E E P G P E C b b b b b M b b B m b m b b b b b b l N B q . & & & $ - = $ = = $ $ = = = = ",
"= = = = = = = = = = = $ * * < Y P P P T { ' T T Y P P P P Y T T o.@.| ` ` P P P P A b b b n b b b b b b b b b b M d B N B h D f = = = = $ $ $ = = $ = # = = = = ",
"= = = = = = $ = = = # o g ~ K Y P W ` [ @.@.` ` E P T Y P P P P P E P P P P P n b n b n b b p r t b b b B B b N b M b z V < O % = = = $ $ - $ $ # $ $ $ = = = = ",
"= = = = = = = = = & * o x R K I P E ` ] O.O.{ _ E P S P P P T P P P U I P U P n b b b n b b b r t b b n b B N b B V F D H 2 o o = = = = = = = - $ $ & & = = = = ",
"= = = = = = = = = & & . x R I E E | X.X.O.@.o.X.[ W E T P Z B C n C C n C n C m b n m b b b b p d p p p z t N V y 3 3 4 5 * & & = $ = = = = = = $ $ $ & = = = = ",
"= $ = = = = = = & = & o g R E ` ` +.@.@.O.O.O.#.o.Q ` P T B b b b b b b b b b b b b b b n n b b M t r t e r N F 3 X o @ & & O & = = = = = = = = = = & & = = & = ",
"$ $ = = = = = = & & o o g R I _ / o.+.+.@.O.o.o.[ W W T P B B n b b b b b b M b b b b b b b b n b a p t r p i c < @ = = & - & & = = = = $ = = = = = = = @ = = = ",
"= = = & & & = = $ $ = @ g Y P P P ) ` | @.O.E S T P P S Y Y T P b b b b b b b p t t u r u r b P T b b B m x + o = = $ $ & = & & = = = = = = $ $ = = = = & & $ = ",
"= = & & & & = = $ $ = @ j ( Y Y P ) ) | @.*.E P P P S T P P P A b b n b b b b p t r r r e r b E K b b N F c + # - = $ $ & = = = = = = = = = = $ = = = = & & = & ",
"= = & & & = = = = = = & 1 4 8 P P T P U W ) C n C V n P P P S P A S C C P P C n b b p b p u p C m B V 8 , 2 @ - = = = = = $ = = = = & & = & = = = = = & & & $ $ ",
"= = & & & - = = = = = $ & X , ^ T P Y T Y R B V N N m S P P P I P T P P P P P C b b m b u e p n b b B 9 X @ $ = = = = = = $ = $ = & & & = & = = = = & & & & $ # ",
"= = = = = = = = = = = = - @ 1 v c v c c v j g y g V b C S A S P P P P P U A A M b b b p p p p b b B G 0 o & = = = = = = = = = $ = = = & $ = = = = = = $ = = = $ ",
"= = = = & = = = = = = = - = @ @ o o o @ @ @ o . 6 V N b z b b b P S P P K b b b b z r r b n h e r K ^ q & = & = = = = = = = $ $ = = = = = = = = = = = = = = = & ",
"= = = = = = = = = = = = @ = = = = * & - $ * # # 5 F F D m m V M P P P Y A b n b b d r r b b l u p K ( f & = $ $ = $ = = = = $ $ & = = = = = & = = = = = $ & = = ",
"= = = = = = = = = = = = = = = = & & & & $ & @ # % 1 > ; : 8 V V n n B C m b b p p p l b a p l G G < , > = = = $ = = = = = = $ $ = = $ = = = # = = = = = = = = = ",
"= = = = = = = & = = = = = = = = & = & & & = = = $ $ $ % o 7 V z b b b b n n b p e p b M r e z ` ! ; o * @ @ $ $ = = = - = = $ = = = = & = = = = = = & $ = = = = ",
"= = = = = = = = = = = = = $ @ = = - = & & = = = $ % % % X 0 V m B b b s a a a a p d n b z z h i g # o = = @ $ $ = = = = = = = = $ & = = = = & = = = = = = = = & ",
"= = = = & = = = = @ @ = = = = = = & & & & & - = $ $ $ % o 0 v z N N p r r e r d b b b b I _ i . O # $ @ @ = = = = = = = = = = = = = = = = = $ = = = = = = = = = ",
"= = = = = = = = = = = = = = = = & & & & & & & - $ $ $ $ o 0 F c z B p r r t e z B N N N H ! i o @ % # @ = $ $ $ - = = = = = = = = = = = & $ = & $ & = = & = = $ ",
"= & = = = & = = = = = = = = = = $ $ $ = = = & = = = = = * * * : z m z z b A K K ! c O * , > = - = = $ $ = = = = = = & & = = = = = = = = = = = = = = = = = = # = ",
"= = = $ = $ = & = = = = = = = = $ $ $ $ & = = = = = = = # & * - V V m C K R R ~ _ c & o & $ = = $ = $ $ = = = = = = = = = = = = = = $ & = = = = = = = = = = = = ",
"= $ = & = = # & = = = = = = = & $ % $ $ = = = = = & = = @ $ = - 0 7 0 9 0 f f f f 5 & & = = = = $ $ = $ = = = = = = = = = = = = = & = $ = = = = = = = $ = = = & ",
"= = = = = = = = = = = = = = = = $ $ $ $ = = = = = & = = = = $ $ $ $ @ o o o @ @ o & o & = = = = = = = = = = & = = = = = = & = $ = = = & = = & $ = = = = = = = = ",
"& = = = = = = = = = = = = & = = = = = = = = = = = = = = = = = $ $ % = = % $ # = = - - = = = = = = = = = = = = = = = = = = = = = = = = = = $ = = = # & & = = & = ",
"= = = = = = = = = = = = = = = $ = = = = = $ = = = = = & = = = = $ = = = % $ - = = = = = = = = = $ = = = = = = = = = = = = = # = & $ = = = = = = = = = = = = $ = ",
"= = = $ = = $ = = = $ = = = = = = & = & = = = = @ = = = - & & = = = = & & & & @ = = - = = = - $ = $ $ = & & & & & = = = = = $ $ = = = = = = = = = = = $ = = & $ ",
"= = = & = = = = = = = = = = = & & & & & = = & & = = = = & & & & = = & & & & = & = = = = = = = = = $ = = & & & & = = = & = = $ $ = = = = = = = = = = = = = = = = ",
"= = = = = = = $ = = = = $ & = = = = = $ = = = = = & = & = = = & = & & $ = = = = = = = & = = = = = = = & $ = = = $ = & = = = & $ = = = = = = = = = = $ = = = = = ",
"= = = = = = = = & = = = = = = $ = & = = = & = = = $ = $ = = & $ = = = = & = & $ = = = $ = $ = & = = = = = = = & = = = = = = = = = = = = $ = & = = = & = = = = = ",
"= = = = = = = = = = & = = = = & = = = & = $ = = = = & = = = = = = $ = = = = = = $ * = = = & = = $ = = = = & = $ = = = = = & = = = $ $ = & $ = = = = & = & = = & ",
"$ = = = & = = = = $ = = = = = = = = = = = = = = = = = = = = = = = & = = = = = = $ & = = = = = & & = = = = = = = & = = $ = $ = = & * = = = = = = = = = $ $ = = = ",
"= = = = = = = & = = = = = = = = = = = = = = = = = = = = = = = = = = = = = = $ & = = & = = = = $ $ = & = = = = $ = = = & = $ & = & = = = = = = = = = = = = = & = ",
"= $ & = $ = = = = $ = = # = = = & $ = = = = = = & = = = $ & = = = = & $ = = = = = = = = $ = = = = = = = = = = & = = = = = = = = $ = = = = = = = = = = = = = # = ",
"= = = = & $ = = = = = = = = = & = = = # = $ = = $ = = = = = & * = = $ = & = = = = = = = = = = = & = = = = = = = & = = = = & = = = = = = = = = # = = = = = = = = ",
"= & = = = = = = = = = = = = = = = = = & = = = = = = = $ = = $ $ = = & = = = = = = $ = = & = = = = = = $ & = = = $ = = = = = = $ = = = & $ = & & = = = $ = = = = ",
"= = = & = = = = = = & = = = & $ = = = = & = = = = = = = = = # & = = & = = $ & = $ = & = = = = = = $ = = & & = $ & = = = = = = & = = $ = = = = = = = = $ = $ & = ",
"= $ = = = = $ = = = = = = = = = = = & = $ = = = = & = = = = = & = = = = & = $ = = = = = = = = = * $ = = # = = = = = = = = = = = & = = = = $ & = = = = & = = = = ",
"$ = = = = = = = = = = $ $ = = = = = = $ = = = = = = $ = = = = = = = = = = = = = = & = = = = = = = = = = = = = = = = = = = = = = = = = = & = = = & = = = = = = = ",
"& = = = = = = = = = & = & = = = = = = & = = = & = = & = = = & $ = $ = = = = = = = = = = = $ # = & $ = = = = = = = $ = = & $ = = = = = = = = = $ $ = = = & = = = ",
"= = = = = = = # = = $ = = = = = $ = = = = = = $ = = = = = = & $ = = = = = = & = = = = = = = = = = = = = = & & = = = = = = = & = = = = = = = = & = = = = = = & $ ",
"= = & = $ = = = = = = & & = = = & = = = = = = = = = = = = = = = = = = = $ = = = = = & $ = = = = = = = = = $ $ = = = = = = = = = = = = = = = = = = = = & = = = = ",
"= $ = = & = = = = = = = = = = & = = = & = = = = = = = = = = = = = # = = = & = = = = = = = & = = = = $ = = = & = = = = $ = & $ = $ = = = $ = = = = = = = = & = = ",
"= & = = = = = = $ & = = = = = $ = = = $ = = = = $ = = = $ = & = = = = = = = = $ & = = = $ = = & = = & = = = = = = = = = = = = = = = = = & = = = & = = $ = $ = = "
};
