/* XPM */
static char *_c5115b786c4451a85f766458691c0e01qj1VM0lOXBcV3Ox[] = {
/* columns rows colors chars-per-pixel */
"32 32 146 2 ",
"   c #0E110F",
".  c #0F1212",
"X  c #121514",
"o  c #191716",
"O  c #151817",
"+  c #1B1817",
"@  c #151918",
"#  c #1A1D1C",
"$  c #1D201E",
"%  c #1E2221",
"&  c #202423",
"*  c #2F2C27",
"=  c #272C2B",
"-  c #312C27",
";  c #332E29",
":  c #36302A",
">  c #3E352D",
",  c #5B1C1B",
"<  c #641B1A",
"1  c #4F201E",
"2  c #50201F",
"3  c #59261D",
"4  c #67291E",
"5  c #522220",
"6  c #542926",
"7  c #5B2A24",
"8  c #413831",
"9  c #4D3F34",
"0  c #5F3E38",
"q  c #662A20",
"w  c #6A2F23",
"e  c #4E4136",
"r  c #56473B",
"t  c #5F4D3F",
"y  c #6B443D",
"u  c #5F4E40",
"i  c #5E5554",
"p  c #5B5E5E",
"a  c #675444",
"s  c #685646",
"d  c #695748",
"f  c #6E5949",
"g  c #725C4B",
"h  c #6E5251",
"j  c #655D56",
"k  c #605F5C",
"l  c #745F50",
"z  c #5C605F",
"x  c #77614E",
"c  c #78614F",
"v  c #6C635A",
"b  c #746153",
"n  c #7B6453",
"m  c #70675F",
"M  c #5D6060",
"N  c #656969",
"B  c #686C6B",
"V  c #717676",
"C  c #777B7A",
"Z  c #787D7C",
"A  c #801917",
"S  c #831C1B",
"D  c #881B1A",
"F  c #901D1B",
"G  c #991F1F",
"H  c #A61615",
"J  c #A91717",
"K  c #A81817",
"L  c #A71A19",
"P  c #AA1D1C",
"I  c #AD211F",
"U  c #B7251E",
"Y  c #9C2120",
"T  c #AC2220",
"R  c #B42621",
"E  c #C3281E",
"W  c #CD2D1C",
"Q  c #CE301F",
"!  c #D5321F",
"~  c #EE3B1E",
"^  c #F13719",
"/  c #F13A1D",
"(  c #C42E22",
")  c #C92E22",
"_  c #CD3224",
"`  c #D33523",
"'  c #D93A26",
"]  c #E53A22",
"[  c #EE3C21",
"{  c #F23F22",
"}  c #C94137",
"|  c #EF4226",
" . c #EF4529",
".. c #F14125",
"X. c #836955",
"o. c #856B58",
"O. c #8F725C",
"+. c #94755E",
"@. c #826664",
"#. c #977760",
"$. c #987861",
"%. c #BF6160",
"&. c #CD5046",
"*. c #D45A4E",
"=. c #F05942",
"-. c #E76958",
";. c #F36B56",
":. c #EF705A",
">. c #C87778",
",. c #CA7878",
"<. c #EF7D6A",
"1. c #F27D6A",
"2. c #D7817B",
"3. c #F18C7C",
"4. c #828686",
"5. c #848888",
"6. c #929696",
"7. c #949998",
"8. c #B1928C",
"9. c #B39590",
"0. c #CC8786",
"q. c #CE8B8C",
"w. c #DF948D",
"e. c #C49696",
"r. c #D89996",
"t. c #EF9081",
"y. c #F09B8C",
"u. c #F09E90",
"i. c #EFA093",
"p. c #F0A497",
"a. c #D49FA0",
"s. c #D6A0A0",
"d. c #DBACAD",
"f. c #DCAFB0",
"g. c #E7AEA9",
"h. c #F2AEA2",
"j. c #F1B2A6",
"k. c #F1B7AE",
"l. c #F2B9AF",
"z. c #F1BFB7",
"x. c #D0D5D6",
"c. c #F4D1CB",
"v. c #F6F5F6",
"b. c #F3F7FA",
"n. c #F5FBFD",
"m. c #F9FFFF",
/* pixels */
"+.+.+.+.+.+.+.+.+.+.+.+.+.+.+.+.+.+.+.+.+.+.+.+.+.+.+.+.+.+.+.+.",
"+.+.+.+.+.+.+.+.+.+.+.+.+.+.+.+.+.+.+.+.+.+.+.+.+.+.+.+.+.+.+.+.",
"+.+.+.+.+.+.+.+.+.+.+.+.+.+.X.s d s X.+.+.+.+.+.+.+.+.+.+.+.+.+.",
"+.+.+.+.+.+.+.+.+.+.+.+.+.$.s X O . u $.+.+.+.+.+.+.+.+.+.+.+.+.",
"+.+.+.+.+.+.+.+.+.+.+.+.X.u v C Z C m u X.+.+.+.+.+.+.+.+.+.+.+.",
"+.+.+.+.+.+.+.+.+.+.+.$.f   V m.m.m.4.X s $.+.+.+.+.+.+.+.+.+.+.",
"+.+.+.+.+.+.+.+.+.+.X.r v 5.8.y.w.q.h X 8 r X.+.+.+.+.+.+.+.+.+.",
"+.+.+.+.+.+.+.+.+.#.l X N m.h.^ W H , X @ X f #.+.+.+.+.+.+.+.+.",
"+.+.+.+.+.+.+.+.o.e j 6.9.t.:.~ _ L S < @.7.v 9 X.+.+.+.+.+.+.+.",
"+.+.+.+.+.+.+.+.n O p n.l./ [ / Q L P J s.m.N X x +.+.+.+.+.+.+.",
"+.+.+.+.+.+.+.+.n # p b.l.{ :.j.g.d.%.L a.n.B @ c +.+.+.+.+.+.+.",
"+.+.+.+.+.+.+.+.n @ p b.k./ 3.n.n.m.0.H r.n.N O x +.+.+.+.+.+.+.",
"+.+.+.+.+.+.+.+.n & 0 <.-.E 2.n.z.1.&.P *.1.y % n +.+.+.+.+.+.+.",
"+.+.+.+.+.+.+.+.n # 3 ~ ! H >.n.i.^ ) L ! / 4 # x +.+.+.+.+.+.+.",
"+.+.+.+.+.+.+.+.n % 7 | ' P ,.n.p.{ _ P ` ..w % n +.+.+.+.+.+.+.",
"+.+.+.+.+.+.+.+.n # 7  .' K ,.v.u./ _ L ` { 4 # x +.+.+.+.+.+.+.",
"+.+.+.+.+.+.+.+.n % i c.w.P } ;.=..._ P ` ..w % n +.+.+.+.+.+.+.",
"+.+.+.+.+.+.+.+.n # p n.f.P ) / | { _ K ` [ q # c +.+.+.+.+.+.+.",
"+.+.+.+.+.+.+.+.n $ M b.d.P ) { | { _ P R U 5 $ n +.+.+.+.+.+.+.",
"+.+.+.+.+.+.+.+.n # p b.d.P ) { | { _ P I P 2 # c +.+.+.+.+.+.+.",
"+.+.+.+.+.+.+.+.n # z b.d.P ) { | { _ P T P 5 $ c +.+.+.+.+.+.+.",
"+.+.+.+.+.+.+.+.n # z b.d.P ) { | { _ P T P 5 $ c +.+.+.+.+.+.+.",
"+.+.+.+.+.+.+.+.n # p n.f.P ) { ..{ _ P I P 1 # c +.+.+.+.+.+.+.",
"+.+.+.+.+.+.+.+.n - k x.e.P ( ] ] ] ( P Y F 6 - n +.+.+.+.+.+.+.",
"+.+.+.+.+.+.+.+.+.O.b = 6 K I P I P I K , + f O.+.+.+.+.+.+.+.+.",
"+.+.+.+.+.+.+.+.+.+.n - 6 D G K P L G D 7 * x +.+.+.+.+.+.+.+.+.",
"+.+.+.+.+.+.+.+.+.+.+.O.f + , K P K < o a O.+.+.+.+.+.+.+.+.+.+.",
"+.+.+.+.+.+.+.+.+.+.+.+.c : 7 A S A 7 ; g +.+.+.+.+.+.+.+.+.+.+.",
"+.+.+.+.+.+.+.+.+.+.+.+.+.+.a O @ O t +.+.+.+.+.+.+.+.+.+.+.+.+.",
"+.+.+.+.+.+.+.+.+.+.+.+.+.+.x > 8 > g +.+.+.+.+.+.+.+.+.+.+.+.+.",
"+.+.+.+.+.+.+.+.+.+.+.+.+.+.+.+.+.+.+.+.+.+.+.+.+.+.+.+.+.+.+.+.",
"+.+.+.+.+.+.+.+.+.+.+.+.+.+.+.+.+.+.+.+.+.+.+.+.+.+.+.+.+.+.+.+."
};
