/* XPM */
static char *f7b420b6d0be4068c5e54ce91425d4eeyE6OfnTW1ITyHgKa[] = {
/* columns rows colors chars-per-pixel */
"32 32 225 2 ",
"   c None",
".  c #070E04",
"X  c #2D5C1A",
"o  c #336A1E",
"O  c #6D4C41",
"+  c #64443D",
"@  c #705140",
"#  c #684940",
"$  c #0E0031",
"%  c #17100E",
"&  c black",
"*  c #040803",
"=  c #29541A",
"-  c #30621F",
";  c black",
":  c black",
">  c #0D1B07",
",  c #336B1A",
"<  c #3A7A1D",
"1  c #0D1A07",
"2  c #020301",
"3  c None",
"4  c black",
"5  c #070F04",
"6  c black",
"7  c #112506",
"8  c #65443D",
"9  c #88634E",
"0  c #755C3F",
"q  c #17190E",
"w  c #37511F",
"e  c #37521F",
"r  c #64453D",
"t  c #815D49",
"y  c #D2A26A",
"u  c #7D5A44",
"i  c #7D5A43",
"p  c #64453F",
"a  c #805946",
"s  c #5D423E",
"d  c #744F41",
"f  c #91674C",
"g  c #CD9E68",
"h  c #CC9D68",
"j  c #664740",
"k  c #826440",
"l  c #816440",
"z  c #000001",
"x  c #2F280D",
"c  c black",
"v  c #231B01",
"b  c #140F00",
"n  c #1D1500",
"m  c #2B2016",
"M  c black",
"N  c #000100",
"B  c #19200B",
"V  c #000500",
"C  c #173805",
"Z  c #51A317",
"A  c #100606",
"S  c #2D300F",
"D  c #60AB1A",
"F  c #22170D",
"G  c #211A10",
"H  c #120E09",
"J  c #211A11",
"K  c #1E150C",
"L  c #132506",
"P  c black",
"I  c black",
"U  c #090705",
"Y  c #080505",
"T  c #36221F",
"R  c #0D1B04",
"E  c #0C1E03",
"W  c #080505",
"Q  c #0C0707",
"!  c black",
"~  c #050303",
"^  c #090605",
"/  c #0F0A09",
"(  c #090605",
")  c black",
"_  c #336B17",
"`  c #59C318",
"'  c #5ECF18",
"]  c #59C618",
"[  c #63DD17",
"{  c #63DE17",
"}  c #326817",
"|  c #5CB81D",
" . c #74DC1C",
".. c #77DF1B",
"X. c #569D1E",
"o. c #888B37",
"O. c #DFDB38",
"+. c #EDEA37",
"@. c #ECE937",
"#. c #EDEB37",
"$. c #E0DB37",
"%. c #837733",
"&. c #E4CD3A",
"*. c #FFE636",
"=. c #FFEB3A",
"-. c #FFEB3B",
";. c #F1DA3B",
":. c #E1CC3C",
">. c #837B38",
",. c #775B37",
"<. c #DEB01F",
"1. c #F1D332",
"2. c #FDD11E",
"3. c #FFE736",
"4. c #FFEC3C",
"5. c #FEE636",
"6. c #E3B41F",
"7. c #A58340",
"8. c #E3CC3E",
"9. c #DEC83C",
"0. c #775F3C",
"q. c #DE9A5D",
"w. c #8C6744",
"e. c #D2B537",
"r. c #AA8938",
"t. c #F1D736",
"y. c #FFEC39",
"u. c #E3CB3B",
"i. c #A47F47",
"p. c #C89D69",
"a. c #9B7C46",
"s. c #DEC73C",
"d. c #8F6A44",
"f. c #DD9A5D",
"g. c #8B6947",
"h. c #8B683A",
"j. c #E3AF19",
"k. c #FDE031",
"l. c #F0D736",
"z. c #E0B11F",
"x. c #A47E47",
"c. c #D9AD72",
"v. c #E2B577",
"b. c #9A774E",
"n. c #D1B93D",
"m. c #9A7946",
"M. c #CDB53E",
"N. c #8A6839",
"B. c #D39F0D",
"V. c #E0AC16",
"C. c #8D6A3B",
"Z. c #956F47",
"A. c #D9AC70",
"S. c #F0C17C",
"D. c #E1B374",
"F. c #BD9562",
"G. c #957644",
"H. c #D0B83D",
"J. c #D1B931",
"K. c #7B5E3C",
"L. c #493D2A",
"P. c #695642",
"I. c #7A5947",
"U. c #D4A870",
"Y. c #EFC07C",
"T. c #D5AB72",
"R. c #776456",
"E. c #473D36",
"W. c #7B5D3E",
"Q. c #B58C0F",
"!. c #826446",
"~. c #B3B9BC",
"^. c #337CAA",
"/. c #7D6F67",
"(. c #E6B879",
"). c #E7B979",
"_. c #89796D",
"`. c #357DAA",
"'. c #B3B9BB",
"]. c #B19F7D",
"[. c #5196B7",
"{. c #D2D2CA",
"}. c #F2C788",
"|. c #F2C688",
" X c #D1D1CA",
".X c #775B45",
"XX c #C3A57A",
"oX c #F1C588",
"OX c #F5C17C",
"+X c #655F38",
"@X c #836446",
"#X c #D89E58",
"$X c #E6A85C",
"%X c #58B718",
"&X c #436D24",
"*X c #3C6523",
"=X c #497025",
"-X c #4A7026",
";X c #C98E4F",
":X c #D3A24F",
">X c #384017",
",X c #545A2E",
"<X c #3F6425",
"1X c #3B6721",
"2X c #48781B",
"3X c #C0935C",
"4X c #C99050",
"5X c #44671E",
"6X c #5DB01F",
"7X c #646D35",
"8X c #706632",
"9X c #D8DC09",
"0X c #4EAD13",
"qX c #5AB61D",
"wX c #5A8E1E",
"eX c #DBEE06",
"rX c #1A280C",
"tX c #51AE15",
"yX c #67C412",
"uX c #4E352E",
"iX c #1C1B10",
"pX c #311F1C",
"aX c #3F2924",
"sX c #46302A",
"dX c white",
/* pixels */
"                                                                ",
"                                                                ",
"                          . X o o X .                           ",
"                        & * = - - = * &                         ",
"                      ; : > , < < , > : ;                       ",
"                    ; : 1 _ ` ' ' ` _ 1 : ;                     ",
"                  & 2 1 3 ] [ { { [ ] 3 1 2 &                   ",
"                  4 5 } |  ......... .| } 5 4                   ",
"          O + @   6 7 X.o.O.+.@.@.#.$.o.X.7 6   @ + O           ",
"          O 8 9 0 q w %.&.*.=.-.=.*.;.:.>.e q 0 9 8 O           ",
"          O r t y u ,.<.1.2.3.4.5.6.7.8.9.0.i y t r O           ",
"          O p a q.q.w.e.r.t.y.5.u.i.p.a.s.d.f.q.a p O           ",
"          O s d f g g.h.j.k.l.z.x.c.v.b.n.m.h f d s O           ",
"          O # $ j k M.N.B.V.C.Z.A.S.D.F.G.H.l j $ # O           ",
"            O % z x J.K.L.P.I.U.Y.T.R.E.W.J.x z % O             ",
"                c v Q.!.~.^./.(.)._.`.'.!.Q.v c                 ",
"                & b n m ].[.{.}.|. X[.].m n b &                 ",
"                  M N B .XXXoXOXOXoXXX.XB N M                   ",
"                ; V C Z +X@X#X$X$X#X@X+XZ C V ;                 ",
"              & A S D %X&X*X=X-X-X=X*X&X%XD S A &               ",
"              c F ;X:X>X,X<X1X2X2X1X<X,X>X:X;XF c               ",
"              c G 3X4X5X6X7X8X9X9X8X7X6X5X4X3XG c               ",
"              & H J K L 0XqXwXeXeXwXqX0XL K J H &               ",
"                & P I U rX_ tXyXyXtX_ rXU I P &                 ",
"                  4 Y T uXiXR E E R iXuXT Y 4                   ",
"                  c W pXaXsXQ ! ! Q sXaXpXW c                   ",
"                  & ~ Y ^ / (     ( / ^ Y ~ &                   ",
"                    & c ) c &     & c ) c &                     ",
"                                                                ",
"                                                                ",
"                                                                ",
"                                                                "
};
