/* XPM */
static char *_6bdf2a06a514dcc8f06708c24d590cbIFEAQQQSceG0aR29[] = {
/* columns rows colors chars-per-pixel */
"32 32 139 2 ",
"   c #472D1D",
".  c #492F1D",
"X  c #47331E",
"o  c #4D321E",
"O  c #51341E",
"+  c #4E3321",
"@  c #4F3A22",
"#  c #513522",
"$  c #533C25",
"%  c #553D28",
"&  c #554027",
"*  c #5A4327",
"=  c #564328",
"-  c #5B452A",
";  c #5E482B",
":  c #5D4830",
">  c #644C2D",
",  c #684F2F",
"<  c #67502F",
"1  c #644E31",
"2  c #694F31",
"3  c #665133",
"4  c #6B5435",
"5  c #6F5837",
"6  c #6D5539",
"7  c #6F593A",
"8  c #715635",
"9  c #725937",
"0  c #745C3B",
"q  c #765C3B",
"w  c #765D3B",
"e  c #765E3B",
"r  c #745C39",
"t  c #745B3C",
"y  c #775B3C",
"u  c #745C3C",
"i  c #745C3D",
"p  c #745D3D",
"a  c #775D3C",
"s  c #765D3D",
"d  c #775D3D",
"f  c #765E3C",
"g  c #775E3C",
"h  c #765E3D",
"j  c #775E3E",
"k  c #735B3C",
"l  c #785C3B",
"z  c #785D3C",
"x  c #795D3C",
"c  c #785C3D",
"v  c #795D3D",
"b  c #785E3C",
"n  c #785E3D",
"m  c #795E3D",
"M  c #785F3D",
"N  c #795F3D",
"B  c #785E3E",
"V  c #785F3E",
"C  c #795F3E",
"Z  c #785F3F",
"A  c #795F3F",
"S  c #7A5F3E",
"D  c #795E3E",
"F  c #78603D",
"G  c #79603E",
"H  c #79603F",
"J  c #7A603E",
"K  c #7A603F",
"L  c #7B603F",
"P  c #7C603F",
"I  c #79613F",
"U  c #775E40",
"Y  c #785F40",
"T  c #7A6040",
"R  c #7B6040",
"E  c #7B6240",
"W  c #7B6340",
"Q  c #7A6341",
"!  c #7D6341",
"~  c #7C6441",
"^  c #7E6441",
"/  c #7C6443",
"(  c #7C6543",
")  c #7E6643",
"_  c #7B6445",
"`  c #7E6644",
"'  c #7E6744",
"]  c #7D6646",
"[  c #7C6442",
"{  c #806544",
"}  c #806644",
"|  c #816644",
" . c #806745",
".. c #826645",
"X. c #836746",
"o. c #806645",
"O. c #816845",
"+. c #826845",
"@. c #816846",
"#. c #816847",
"$. c #856947",
"%. c #826846",
"&. c #836A49",
"*. c #856948",
"=. c #856A48",
"-. c #876A49",
";. c #846C49",
":. c #866C48",
">. c #846C4A",
",. c #846B49",
"<. c #896D49",
"1. c #886D4A",
"2. c #896D4A",
"3. c #896E4A",
"4. c #8B6F4B",
"5. c #8C6F4B",
"6. c #8A6E4B",
"7. c #8C704B",
"8. c #8C704D",
"9. c #8C714E",
"0. c #897250",
"q. c #897252",
"w. c #8C7454",
"e. c #8E7754",
"r. c #8D7452",
"t. c #8F7856",
"y. c #907855",
"u. c #937A56",
"i. c #917955",
"p. c #927B59",
"a. c #937B59",
"s. c #957B58",
"d. c #957D5A",
"f. c #967E5B",
"g. c #957D5A",
"h. c #97805C",
"j. c #97815D",
"k. c #98815D",
"l. c #9C8865",
/* pixels */
"o O O O O O . O O O O O O * $ $ $ O $ $ O O O O O O O O O O O O ",
"O - - ; >   * O $ * - - o > > > > > > > O > > * * * $ X - - - - ",
"O - 4 9 k @.o O & * * > o < < , , > > > O > * > * *   ` 2 , > * ",
"O , 4 t 9 F :.O , , , 2 O r e l l x 9 8 $ 2 2 2 , X ` c w , > ; ",
"o ; 4 8 p p H >.+ 3 3 , $ w H c l l w 9 & 4 4 2 o 0.H H l , , - ",
"o . > 4 p p p ~ 4.# 6 4 * w P H P J w t - 8 6 o w.( T P p 3 >   ",
"O % X ; 9 p H H  .e.O 4 - w H H H J l l > 4 O t. . .P c 4 3   $ ",
"O $ % + : 9 T ( ( @.y.# - w P H J H l 9 * o a.$.$. .{ 8 4   $ O ",
"o ; % & . > 7 T ` ` @.u.$ c c H H H l 8 $ d.1.1.$.X.8 7 . o $ & ",
"o > > & @ + 1 t c `  .$.a.- w c l c 9 # d.5.5.1.-.! 4 X X $ > , ",
"o 1 > 3 @ - o 1 c H @.@.>.a.# 9 w w % k.5.8.1.<.T 8 o $ X 3 3 1 ",
"o 1 3 3 @ ; > @ 3 c ( @. .1.a.# 9 % k.8.5.5.>.` 9 X & % @ 4 3 1 ",
"o 3 3 4 & 3 1 > O 1 H ( @.+.-.0.% k.7.8.7.1.+.9 o = = 3 & 4 3 3 ",
"@ 3 3 4 - 7 7 > > @ 1 c H ( #.1 h.7.8.1.1.c 9 o = = 5 7 & 4 3 3 ",
"@ 1 1 4 = 7 p k 1 1 # 6 c p - l.5.5.7.1.@.t X = = 7 7 7 = 4 3 3 ",
"+ 1 3 4 - p p p 9 1 , + 3 ; j.9.4.5.1. .c o & = 7 F 7 7 - 4 4 3 ",
"@ 1 4 4 - w p p k 9 1 1 % f.4.4.4.<.] t o & - k p k k 5 = 4 4 3 ",
"+ 3 3 4 = p F p k 8 6 % w.4.4.4.] ] 7 # 3 + k p k k k 5 - 7 3 3 ",
"% 1 3 7 = F p p k 5 # r.>.1.-.` ] t # 2  .8.@ k k k 5 4 - 4 3 3 ",
"% 3 3 3 = p p k 9 $ 0.4.1.$.` c t # , .. . .d.# k 5 5 4 = 4 3 3 ",
"$ 3 6 6 & 7 7 7 + e.>.>._ ` T k # > t c @.@.@.h.@ 4 4 3 = 4 3 3 ",
"@ 1 3 6 $ 3 4 + 0.-.-.` ` T k @ - # 3 t p ! @.@.d.@ 3 3 & 4 3 1 ",
"% 3 3 6 + 3 o 0.&.&.T _ ` 9 # ; > > # 1 p c ` $.@.f.+ 3 & 4 4 1 ",
"+ 3 4 4 + + &. .` T ~ p 9 # ; ; c - - # 1 p p ` @.$.h.+ @ 7 3 1 ",
"$ 3 3 6 . ] #.] U Y U 7 - ; ; H I H ; ; + 1 k p ! ! &.a.+ 4 3 1 ",
"@ 3 6 + ] _ ] U U 7 6 + - ; T ~ I H H > - + 1 k U T T ` a.+ 3 1 ",
"+ 1 + ] U p U U k 6 @ ; = U Y T ) I T p % ; O > k p T T ` >.+ 1 ",
"@ . ] U 7 7 U 6 3 + - ; - U c T I ~ T p $ ; ; O : k U T T T -.X ",
"+ &.6 6 6 6 6 2 @ - ; 7 - k c H I H H k % 4 ; ; # : 7 U p p Y -.",
"+ 2 2 6 3 3 1 + - ; 9 k % k p p H F k 9 # 4 5 ; ; + : 7 p p k U ",
"+ 3 4 2 2 1 + - ; 7 9 9 $ 4 9 p w k 7 5 o 5 4 4 ; - + : 7 k k 7 ",
"+ 1 1 1 1 + - - 7 7 7 5 $ 4 4 9 4 5 4 5 o 4 3 4 4 - - + : 7 7 6 "
};
