/* XPM */
static char *_dfacb0134e84f31ea45c9b8127b8fa6H5syxnUaTcGl5su9[] = {
/* columns rows colors chars-per-pixel */
"32 32 129 2 ",
"   c #94755E",
".  c #522C16",
"X  c #512E1B",
"o  c #553017",
"O  c #583017",
"+  c #54321C",
"@  c #59351C",
"#  c #5E3A1D",
"$  c #563620",
"%  c #583621",
"&  c #5C3B24",
"*  c #5E3E29",
"=  c #5E442C",
"-  c #62452C",
";  c #64482E",
":  c #684C2F",
">  c #644A31",
",  c #6A4D33",
"<  c #6D5136",
"1  c #6C543B",
"2  c #715437",
"3  c #71563B",
"4  c #74593D",
"5  c #6E5740",
"6  c #715740",
"7  c #755C42",
"8  c #795F43",
"9  c #755F48",
"0  c #7A6144",
"q  c #766149",
"w  c #7A644B",
"e  c #7F694D",
"r  c #846D4D",
"t  c #87704F",
"y  c #866F50",
"u  c #877050",
"i  c #887150",
"p  c #897250",
"a  c #8A7352",
"s  c #8B7453",
"d  c #8C7553",
"f  c #8D7755",
"g  c #8B7453",
"h  c #8F7957",
"j  c #8F7857",
"k  c #84755E",
"l  c #85755E",
"z  c #85765F",
"x  c #86765F",
"c  c #8D7759",
"v  c #8F7958",
"b  c #8E7859",
"n  c #8F7959",
"m  c #8E785A",
"M  c #8E795A",
"N  c #8E795B",
"B  c #8D785A",
"V  c #907959",
"C  c #907A5A",
"Z  c #907A5B",
"A  c #917A5C",
"S  c #937D5C",
"D  c #937D5D",
"F  c #937D5E",
"G  c #957F5E",
"H  c #947F5F",
"J  c #927C5C",
"K  c #877761",
"L  c #867760",
"P  c #877860",
"I  c #8A7961",
"U  c #8A7962",
"Y  c #8A7A62",
"T  c #8B7B63",
"R  c #8D7C63",
"E  c #8C7C64",
"W  c #8C7C65",
"Q  c #8D7D66",
"!  c #8F7F67",
"~  c #8D7C64",
"^  c #957F60",
"/  c #947F61",
"(  c #907F67",
")  c #96815F",
"_  c #958061",
"`  c #968061",
"'  c #968161",
"]  c #968162",
"[  c #968163",
"{  c #978263",
"}  c #938164",
"|  c #988362",
" . c #998363",
".. c #9A8667",
"X. c #908168",
"o. c #918169",
"O. c #918269",
"+. c #928269",
"@. c #91846F",
"#. c #93866F",
"$. c #94866E",
"%. c #95876F",
"&. c #94846B",
"*. c #96896F",
"=. c #9E896B",
"-. c #9E896C",
";. c #9E8A6C",
":. c #9D896B",
">. c #928570",
",. c #938671",
"<. c #968870",
"1. c #978A70",
"2. c #968972",
"3. c #978A73",
"4. c #968871",
"5. c #988A72",
"6. c #998C72",
"7. c #9A8D73",
"8. c #9B8D75",
"9. c #9B8E74",
"0. c #9C8F75",
"q. c #9D8F77",
"w. c #9A8D73",
"e. c #9D9076",
"r. c #9E9177",
"t. c #9F9278",
"y. c #9F9278",
"u. c #A09378",
"i. c #A3967B",
/* pixels */
"      = r c r , +                             + e c y < X       ",
"      * r f y , +                             + r N y , +       ",
"      @ r F u < %                             + e c y < +       ",
"      + r F u < +                             + r c r 3 +       ",
"    o 9.@ ^ r o U %                         & T X A r $ 3.X     ",
"  X w 0.0.@ @ E O.5 + - ; : < , < < , , - @ 6 O.U o X 1.3.9 ;   ",
"* N X w t.9.R O.3 X r F [ | ;.;.=.=.=.F S r X 3 O.U 3.q.9 . V , ",
"& r r o w t.1.< o 4 r t a d N A h h j d t t 0 O , %.q.9 . r y % ",
"$ 7 7 . U 7 3.>.o > 7 7 9 7 0 0 0 7 w 7 0 7 , X %.6.5 K . 6 6 $ ",
"+ > . K ! < 5 1.>.X = = = > > > > > > = = = X >.1.1 1 Q L . > + ",
"X X l W 1 X . 1 @.@.+ X + X X X + X X X X o @.>.1 . X 1 U k X X ",
"    X 1 + < > X < X                         X 1 X < > o 1 X     ",
"      + ; < , ; X                             + ; < , > +       ",
"      $ r N r < $                             $ r c r < +       ",
"      @ y ^ r < X                             $ r / r < $       ",
"      = y [ r < $                             - y ^ r < +       ",
"      * y [ r < +                             * t | r < +       ",
"      * y | r < +                             * a [ t 2 +       ",
"      + r [ r 2 +                             @ r [ r < @       ",
"      @ t [ t 3 @                             @ r [ t 3 +       ",
"    @ t.& | p O ~ &                         & ~ o | u @ e.+     ",
"  o w t.0.# @ ( &.6 @ ; ; 2 4 4 4 3 2 , - @ 6 &.W @ @ 9.0.w -   ",
"* V o e i.t.( %.4 X r F ....;.;.;.=...) ) r o 6 &.( 0.i.r X A , ",
"& y a @ r i.5.3 O 0 r a a a f N j f f a t t 0 @ 3 0.i.r O a t & ",
"$ 8 8 . ( 8 0.5.o > 7 7 7 7 7 7 7 7 7 7 7 q < + 5.u.w ~ O 0 0 % ",
"$ > . U &.1 6 5.4.X = ; = > > > > > > = = = o 3.5.7 3 %.T . > $ ",
"X X K ~ 5 o o 1 >.>.+ X + + X X + X X X + + ,.,.6 O @ 6 ~ P + + ",
"    X 5 + < > X 1 X                         X 1 X < , o 5 X     ",
"      X , 4 ; ; +                             X > < ; > +       ",
"      X w c r < X                             + e B y < +       ",
"      + e c y , X                             X r c y , X       ",
"        + $ $ +                                 + $ $ +         "
};
